<?xml version="1.0" standalone="yes"?>

<svg version="1.1" viewBox="0.0 0.0 1024.0 768.0" fill="none" stroke="none" stroke-linecap="square" stroke-miterlimit="10" xmlns="http://www.w3.org/2000/svg" xmlns:xlink="http://www.w3.org/1999/xlink"><clipPath id="p.0"><path d="m0 0l1024.0 0l0 768.0l-1024.0 0l0 -768.0z" clip-rule="nonzero"></path></clipPath><g clip-path="url(#p.0)"><path fill="#000000" fill-opacity="0.0" d="m0 0l1024.0 0l0 768.0l-1024.0 0z" fill-rule="evenodd"></path><path fill="#d9ead3" d="m572.2598 353.0l33.007874 0l0 28.0l-33.007874 0z" fill-rule="evenodd"></path><path stroke="#000000" stroke-width="1.0" stroke-linejoin="round" stroke-linecap="butt" d="m572.2598 353.0l33.007874 0l0 28.0l-33.007874 0z" fill-rule="evenodd"></path><path fill="#d9ead3" d="m604.2598 353.0l33.007874 0l0 28.0l-33.007874 0z" fill-rule="evenodd"></path><path stroke="#000000" stroke-width="1.0" stroke-linejoin="round" stroke-linecap="butt" d="m604.2598 353.0l33.007874 0l0 28.0l-33.007874 0z" fill-rule="evenodd"></path><path fill="#d9ead3" d="m636.2598 353.0l33.007874 0l0 28.0l-33.007874 0z" fill-rule="evenodd"></path><path stroke="#000000" stroke-width="1.0" stroke-linejoin="round" stroke-linecap="butt" d="m636.2598 353.0l33.007874 0l0 28.0l-33.007874 0z" fill-rule="evenodd"></path><path fill="#d9ead3" d="m668.2598 353.0l33.007874 0l0 28.0l-33.007874 0z" fill-rule="evenodd"></path><path stroke="#000000" stroke-width="1.0" stroke-linejoin="round" stroke-linecap="butt" d="m668.2598 353.0l33.007874 0l0 28.0l-33.007874 0z" fill-rule="evenodd"></path><path fill="#000000" fill-opacity="0.0" d="m549.0 344.4963l0 0c0 -6.349243 5.1470947 -11.496307 11.496277 -11.496307l152.53497 0c3.0490112 0 5.9731445 1.2112122 8.12915 3.3671875c2.1559448 2.1559753 3.3671875 5.0801086 3.3671875 8.12912l0 45.983765c0 6.349243 -5.1470947 11.496307 -11.496338 11.496307l-152.53497 0l0 0c-6.349182 0 -11.496277 -5.147064 -11.496277 -11.496307z" fill-rule="evenodd"></path><path stroke="#000000" stroke-width="1.0" stroke-linejoin="round" stroke-linecap="butt" d="m549.0 344.4963l0 0c0 -6.349243 5.1470947 -11.496307 11.496277 -11.496307l152.53497 0c3.0490112 0 5.9731445 1.2112122 8.12915 3.3671875c2.1559448 2.1559753 3.3671875 5.0801086 3.3671875 8.12912l0 45.983765c0 6.349243 -5.1470947 11.496307 -11.496338 11.496307l-152.53497 0l0 0c-6.349182 0 -11.496277 -5.147064 -11.496277 -11.496307z" fill-rule="evenodd"></path><path fill="#cfe2f3" d="m253.0 207.0l33.007874 0l0 28.0l-33.007874 0z" fill-rule="evenodd"></path><path stroke="#000000" stroke-width="1.0" stroke-linejoin="round" stroke-linecap="butt" d="m253.0 207.0l33.007874 0l0 28.0l-33.007874 0z" fill-rule="evenodd"></path><path fill="#000000" d="m262.78125 221.21687q0 -2.421875 0.5 -3.890625q0.5 -1.46875 1.46875 -2.265625q0.984375 -0.796875 2.46875 -0.796875q1.09375 0 1.921875 0.4375q0.828125 0.4375 1.359375 1.28125q0.546875 0.828125 0.84375 2.015625q0.3125 1.1875 0.3125 3.21875q0 2.390625 -0.5 3.859375q-0.484375 1.46875 -1.46875 2.28125q-0.96875 0.796875 -2.46875 0.796875q-1.96875 0 -3.078125 -1.40625q-1.359375 -1.703125 -1.359375 -5.53125zm1.71875 0q0 3.34375 0.78125 4.453125q0.796875 1.109375 1.9375 1.109375q1.15625 0 1.9375 -1.109375q0.78125 -1.125 0.78125 -4.453125q0 -3.359375 -0.78125 -4.46875q-0.78125 -1.109375 -1.953125 -1.109375q-1.15625 0 -1.828125 0.984375q-0.875 1.234375 -0.875 4.59375z" fill-rule="nonzero"></path><path fill="#cfe2f3" d="m285.0 207.0l33.007874 0l0 28.0l-33.007874 0z" fill-rule="evenodd"></path><path stroke="#000000" stroke-width="1.0" stroke-linejoin="round" stroke-linecap="butt" d="m285.0 207.0l33.007874 0l0 28.0l-33.007874 0z" fill-rule="evenodd"></path><path fill="#000000" d="m301.07812 227.92l-1.671875 0l0 -10.640625q-0.59375 0.578125 -1.578125 1.15625q-0.984375 0.5625 -1.765625 0.859375l0 -1.625q1.40625 -0.65625 2.453125 -1.59375q1.046875 -0.9375 1.484375 -1.8125l1.078125 0l0 13.65625z" fill-rule="nonzero"></path><path fill="#cfe2f3" d="m317.0 207.0l33.007874 0l0 28.0l-33.007874 0z" fill-rule="evenodd"></path><path stroke="#000000" stroke-width="1.0" stroke-linejoin="round" stroke-linecap="butt" d="m317.0 207.0l33.007874 0l0 28.0l-33.007874 0z" fill-rule="evenodd"></path><path fill="#000000" d="m326.78125 221.21687q0 -2.421875 0.5 -3.890625q0.5 -1.46875 1.46875 -2.265625q0.984375 -0.796875 2.46875 -0.796875q1.09375 0 1.921875 0.4375q0.828125 0.4375 1.359375 1.28125q0.546875 0.828125 0.84375 2.015625q0.3125 1.1875 0.3125 3.21875q0 2.390625 -0.5 3.859375q-0.484375 1.46875 -1.46875 2.28125q-0.96875 0.796875 -2.46875 0.796875q-1.96875 0 -3.078125 -1.40625q-1.359375 -1.703125 -1.359375 -5.53125zm1.71875 0q0 3.34375 0.78125 4.453125q0.796875 1.109375 1.9375 1.109375q1.15625 0 1.9375 -1.109375q0.78125 -1.125 0.78125 -4.453125q0 -3.359375 -0.78125 -4.46875q-0.78125 -1.109375 -1.953125 -1.109375q-1.15625 0 -1.828125 0.984375q-0.875 1.234375 -0.875 4.59375z" fill-rule="nonzero"></path><path fill="#cfe2f3" d="m349.0 207.0l33.007874 0l0 28.0l-33.007874 0z" fill-rule="evenodd"></path><path stroke="#000000" stroke-width="1.0" stroke-linejoin="round" stroke-linecap="butt" d="m349.0 207.0l33.007874 0l0 28.0l-33.007874 0z" fill-rule="evenodd"></path><path fill="#000000" d="m365.07812 227.92l-1.671875 0l0 -10.640625q-0.59375 0.578125 -1.578125 1.15625q-0.984375 0.5625 -1.765625 0.859375l0 -1.625q1.40625 -0.65625 2.453125 -1.59375q1.046875 -0.9375 1.484375 -1.8125l1.078125 0l0 13.65625z" fill-rule="nonzero"></path><path fill="#cfe2f3" d="m381.0 207.0l33.007874 0l0 28.0l-33.007874 0z" fill-rule="evenodd"></path><path stroke="#000000" stroke-width="1.0" stroke-linejoin="round" stroke-linecap="butt" d="m381.0 207.0l33.007874 0l0 28.0l-33.007874 0z" fill-rule="evenodd"></path><path fill="#000000" d="m390.78125 221.21687q0 -2.421875 0.5 -3.890625q0.5 -1.46875 1.46875 -2.265625q0.984375 -0.796875 2.46875 -0.796875q1.09375 0 1.921875 0.4375q0.828125 0.4375 1.359375 1.28125q0.546875 0.828125 0.84375 2.015625q0.3125 1.1875 0.3125 3.21875q0 2.390625 -0.5 3.859375q-0.484375 1.46875 -1.46875 2.28125q-0.96875 0.796875 -2.46875 0.796875q-1.96875 0 -3.078125 -1.40625q-1.359375 -1.703125 -1.359375 -5.53125zm1.71875 0q0 3.34375 0.78125 4.453125q0.796875 1.109375 1.9375 1.109375q1.15625 0 1.9375 -1.109375q0.78125 -1.125 0.78125 -4.453125q0 -3.359375 -0.78125 -4.46875q-0.78125 -1.109375 -1.953125 -1.109375q-1.15625 0 -1.828125 0.984375q-0.875 1.234375 -0.875 4.59375z" fill-rule="nonzero"></path><path fill="#cfe2f3" d="m413.0 207.0l33.007874 0l0 28.0l-33.007874 0z" fill-rule="evenodd"></path><path stroke="#000000" stroke-width="1.0" stroke-linejoin="round" stroke-linecap="butt" d="m413.0 207.0l33.007874 0l0 28.0l-33.007874 0z" fill-rule="evenodd"></path><path fill="#000000" d="m422.78125 221.21687q0 -2.421875 0.5 -3.890625q0.5 -1.46875 1.46875 -2.265625q0.984375 -0.796875 2.46875 -0.796875q1.09375 0 1.921875 0.4375q0.828125 0.4375 1.359375 1.28125q0.546875 0.828125 0.84375 2.015625q0.3125 1.1875 0.3125 3.21875q0 2.390625 -0.5 3.859375q-0.484375 1.46875 -1.46875 2.28125q-0.96875 0.796875 -2.46875 0.796875q-1.96875 0 -3.078125 -1.40625q-1.359375 -1.703125 -1.359375 -5.53125zm1.71875 0q0 3.34375 0.78125 4.453125q0.796875 1.109375 1.9375 1.109375q1.15625 0 1.9375 -1.109375q0.78125 -1.125 0.78125 -4.453125q0 -3.359375 -0.78125 -4.46875q-0.78125 -1.109375 -1.953125 -1.109375q-1.15625 0 -1.828125 0.984375q-0.875 1.234375 -0.875 4.59375z" fill-rule="nonzero"></path><path fill="#cfe2f3" d="m445.0 207.0l33.007874 0l0 28.0l-33.007874 0z" fill-rule="evenodd"></path><path stroke="#000000" stroke-width="1.0" stroke-linejoin="round" stroke-linecap="butt" d="m445.0 207.0l33.007874 0l0 28.0l-33.007874 0z" fill-rule="evenodd"></path><path fill="#000000" d="m461.07812 227.92l-1.671875 0l0 -10.640625q-0.59375 0.578125 -1.578125 1.15625q-0.984375 0.5625 -1.765625 0.859375l0 -1.625q1.40625 -0.65625 2.453125 -1.59375q1.046875 -0.9375 1.484375 -1.8125l1.078125 0l0 13.65625z" fill-rule="nonzero"></path><path fill="#cfe2f3" d="m477.0 207.0l33.007874 0l0 28.0l-33.007874 0z" fill-rule="evenodd"></path><path stroke="#000000" stroke-width="1.0" stroke-linejoin="round" stroke-linecap="butt" d="m477.0 207.0l33.007874 0l0 28.0l-33.007874 0z" fill-rule="evenodd"></path><path fill="#000000" d="m486.78125 221.21687q0 -2.421875 0.5 -3.890625q0.5 -1.46875 1.46875 -2.265625q0.984375 -0.796875 2.46875 -0.796875q1.09375 0 1.921875 0.4375q0.828125 0.4375 1.359375 1.28125q0.546875 0.828125 0.84375 2.015625q0.3125 1.1875 0.3125 3.21875q0 2.390625 -0.5 3.859375q-0.484375 1.46875 -1.46875 2.28125q-0.96875 0.796875 -2.46875 0.796875q-1.96875 0 -3.078125 -1.40625q-1.359375 -1.703125 -1.359375 -5.53125zm1.71875 0q0 3.34375 0.78125 4.453125q0.796875 1.109375 1.9375 1.109375q1.15625 0 1.9375 -1.109375q0.78125 -1.125 0.78125 -4.453125q0 -3.359375 -0.78125 -4.46875q-0.78125 -1.109375 -1.953125 -1.109375q-1.15625 0 -1.828125 0.984375q-0.875 1.234375 -0.875 4.59375z" fill-rule="nonzero"></path><path fill="#cfe2f3" d="m509.0 207.0l33.007874 0l0 28.0l-33.007874 0z" fill-rule="evenodd"></path><path stroke="#000000" stroke-width="1.0" stroke-linejoin="round" stroke-linecap="butt" d="m509.0 207.0l33.007874 0l0 28.0l-33.007874 0z" fill-rule="evenodd"></path><path fill="#000000" d="m525.0781 227.92l-1.671875 0l0 -10.640625q-0.59375 0.578125 -1.578125 1.15625q-0.984375 0.5625 -1.765625 0.859375l0 -1.625q1.40625 -0.65625 2.453125 -1.59375q1.046875 -0.9375 1.484375 -1.8125l1.078125 0l0 13.65625z" fill-rule="nonzero"></path><path fill="#cccccc" d="m541.0 207.0l33.007874 0l0 28.0l-33.007874 0z" fill-rule="evenodd"></path><path stroke="#000000" stroke-width="1.0" stroke-linejoin="round" stroke-linecap="butt" d="m541.0 207.0l33.007874 0l0 28.0l-33.007874 0z" fill-rule="evenodd"></path><path fill="#000000" d="m557.0781 227.92l-1.671875 0l0 -10.640625q-0.59375 0.578125 -1.578125 1.15625q-0.984375 0.5625 -1.765625 0.859375l0 -1.625q1.40625 -0.65625 2.453125 -1.59375q1.046875 -0.9375 1.484375 -1.8125l1.078125 0l0 13.65625z" fill-rule="nonzero"></path><path fill="#cfe2f3" d="m573.0 207.0l33.007874 0l0 28.0l-33.007874 0z" fill-rule="evenodd"></path><path stroke="#000000" stroke-width="1.0" stroke-linejoin="round" stroke-linecap="butt" d="m573.0 207.0l33.007874 0l0 28.0l-33.007874 0z" fill-rule="evenodd"></path><path fill="#000000" d="m589.0781 227.92l-1.671875 0l0 -10.640625q-0.59375 0.578125 -1.578125 1.15625q-0.984375 0.5625 -1.765625 0.859375l0 -1.625q1.40625 -0.65625 2.453125 -1.59375q1.046875 -0.9375 1.484375 -1.8125l1.078125 0l0 13.65625z" fill-rule="nonzero"></path><path fill="#cfe2f3" d="m605.0 207.0l33.007874 0l0 28.0l-33.007874 0z" fill-rule="evenodd"></path><path stroke="#000000" stroke-width="1.0" stroke-linejoin="round" stroke-linecap="butt" d="m605.0 207.0l33.007874 0l0 28.0l-33.007874 0z" fill-rule="evenodd"></path><path fill="#000000" d="m614.78125 221.21687q0 -2.421875 0.5 -3.890625q0.5 -1.46875 1.46875 -2.265625q0.984375 -0.796875 2.46875 -0.796875q1.09375 0 1.921875 0.4375q0.828125 0.4375 1.359375 1.28125q0.546875 0.828125 0.84375 2.015625q0.3125 1.1875 0.3125 3.21875q0 2.390625 -0.5 3.859375q-0.484375 1.46875 -1.46875 2.28125q-0.96875 0.796875 -2.46875 0.796875q-1.96875 0 -3.078125 -1.40625q-1.359375 -1.703125 -1.359375 -5.53125zm1.71875 0q0 3.34375 0.78125 4.453125q0.796875 1.109375 1.9375 1.109375q1.15625 0 1.9375 -1.109375q0.78125 -1.125 0.78125 -4.453125q0 -3.359375 -0.78125 -4.46875q-0.78125 -1.109375 -1.953125 -1.109375q-1.15625 0 -1.828125 0.984375q-0.875 1.234375 -0.875 4.59375z" fill-rule="nonzero"></path><path fill="#cfe2f3" d="m637.0 207.0l33.007874 0l0 28.0l-33.007874 0z" fill-rule="evenodd"></path><path stroke="#000000" stroke-width="1.0" stroke-linejoin="round" stroke-linecap="butt" d="m637.0 207.0l33.007874 0l0 28.0l-33.007874 0z" fill-rule="evenodd"></path><path fill="#000000" d="m646.78125 221.21687q0 -2.421875 0.5 -3.890625q0.5 -1.46875 1.46875 -2.265625q0.984375 -0.796875 2.46875 -0.796875q1.09375 0 1.921875 0.4375q0.828125 0.4375 1.359375 1.28125q0.546875 0.828125 0.84375 2.015625q0.3125 1.1875 0.3125 3.21875q0 2.390625 -0.5 3.859375q-0.484375 1.46875 -1.46875 2.28125q-0.96875 0.796875 -2.46875 0.796875q-1.96875 0 -3.078125 -1.40625q-1.359375 -1.703125 -1.359375 -5.53125zm1.71875 0q0 3.34375 0.78125 4.453125q0.796875 1.109375 1.9375 1.109375q1.15625 0 1.9375 -1.109375q0.78125 -1.125 0.78125 -4.453125q0 -3.359375 -0.78125 -4.46875q-0.78125 -1.109375 -1.953125 -1.109375q-1.15625 0 -1.828125 0.984375q-0.875 1.234375 -0.875 4.59375z" fill-rule="nonzero"></path><path fill="#cfe2f3" d="m669.0 207.0l33.007874 0l0 28.0l-33.007874 0z" fill-rule="evenodd"></path><path stroke="#000000" stroke-width="1.0" stroke-linejoin="round" stroke-linecap="butt" d="m669.0 207.0l33.007874 0l0 28.0l-33.007874 0z" fill-rule="evenodd"></path><path fill="#000000" d="m678.78125 221.21687q0 -2.421875 0.5 -3.890625q0.5 -1.46875 1.46875 -2.265625q0.984375 -0.796875 2.46875 -0.796875q1.09375 0 1.921875 0.4375q0.828125 0.4375 1.359375 1.28125q0.546875 0.828125 0.84375 2.015625q0.3125 1.1875 0.3125 3.21875q0 2.390625 -0.5 3.859375q-0.484375 1.46875 -1.46875 2.28125q-0.96875 0.796875 -2.46875 0.796875q-1.96875 0 -3.078125 -1.40625q-1.359375 -1.703125 -1.359375 -5.53125zm1.71875 0q0 3.34375 0.78125 4.453125q0.796875 1.109375 1.9375 1.109375q1.15625 0 1.9375 -1.109375q0.78125 -1.125 0.78125 -4.453125q0 -3.359375 -0.78125 -4.46875q-0.78125 -1.109375 -1.953125 -1.109375q-1.15625 0 -1.828125 0.984375q-0.875 1.234375 -0.875 4.59375z" fill-rule="nonzero"></path><path fill="#cfe2f3" d="m701.0 207.0l33.007874 0l0 28.0l-33.007874 0z" fill-rule="evenodd"></path><path stroke="#000000" stroke-width="1.0" stroke-linejoin="round" stroke-linecap="butt" d="m701.0 207.0l33.007874 0l0 28.0l-33.007874 0z" fill-rule="evenodd"></path><path fill="#000000" d="m717.0781 227.92l-1.671875 0l0 -10.640625q-0.59375 0.578125 -1.578125 1.15625q-0.984375 0.5625 -1.765625 0.859375l0 -1.625q1.40625 -0.65625 2.453125 -1.59375q1.046875 -0.9375 1.484375 -1.8125l1.078125 0l0 13.65625z" fill-rule="nonzero"></path><path fill="#cfe2f3" d="m733.0 207.0l33.007874 0l0 28.0l-33.007874 0z" fill-rule="evenodd"></path><path stroke="#000000" stroke-width="1.0" stroke-linejoin="round" stroke-linecap="butt" d="m733.0 207.0l33.007874 0l0 28.0l-33.007874 0z" fill-rule="evenodd"></path><path fill="#000000" d="m742.78125 221.21687q0 -2.421875 0.5 -3.890625q0.5 -1.46875 1.46875 -2.265625q0.984375 -0.796875 2.46875 -0.796875q1.09375 0 1.921875 0.4375q0.828125 0.4375 1.359375 1.28125q0.546875 0.828125 0.84375 2.015625q0.3125 1.1875 0.3125 3.21875q0 2.390625 -0.5 3.859375q-0.484375 1.46875 -1.46875 2.28125q-0.96875 0.796875 -2.46875 0.796875q-1.96875 0 -3.078125 -1.40625q-1.359375 -1.703125 -1.359375 -5.53125zm1.71875 0q0 3.34375 0.78125 4.453125q0.796875 1.109375 1.9375 1.109375q1.15625 0 1.9375 -1.109375q0.78125 -1.125 0.78125 -4.453125q0 -3.359375 -0.78125 -4.46875q-0.78125 -1.109375 -1.953125 -1.109375q-1.15625 0 -1.828125 0.984375q-0.875 1.234375 -0.875 4.59375z" fill-rule="nonzero"></path><path fill="#cfe2f3" d="m253.0 487.0l33.007874 0l0 28.0l-33.007874 0z" fill-rule="evenodd"></path><path stroke="#000000" stroke-width="1.0" stroke-linejoin="round" stroke-linecap="butt" d="m253.0 487.0l33.007874 0l0 28.0l-33.007874 0z" fill-rule="evenodd"></path><path fill="#000000" d="m262.78125 501.21686q0 -2.421875 0.5 -3.890625q0.5 -1.46875 1.46875 -2.265625q0.984375 -0.796875 2.46875 -0.796875q1.09375 0 1.921875 0.4375q0.828125 0.4375 1.359375 1.28125q0.546875 0.828125 0.84375 2.015625q0.3125 1.1875 0.3125 3.21875q0 2.390625 -0.5 3.859375q-0.484375 1.46875 -1.46875 2.28125q-0.96875 0.796875 -2.46875 0.796875q-1.96875 0 -3.078125 -1.40625q-1.359375 -1.703125 -1.359375 -5.53125zm1.71875 0q0 3.34375 0.78125 4.453125q0.796875 1.109375 1.9375 1.109375q1.15625 0 1.9375 -1.109375q0.78125 -1.125 0.78125 -4.453125q0 -3.359375 -0.78125 -4.46875q-0.78125 -1.109375 -1.953125 -1.109375q-1.15625 0 -1.828125 0.984375q-0.875 1.234375 -0.875 4.59375z" fill-rule="nonzero"></path><path fill="#b6d7a8" d="m285.0 487.0l33.007874 0l0 28.0l-33.007874 0z" fill-rule="evenodd"></path><path stroke="#000000" stroke-width="1.0" stroke-linejoin="round" stroke-linecap="butt" d="m285.0 487.0l33.007874 0l0 28.0l-33.007874 0z" fill-rule="evenodd"></path><path fill="#000000" d="m301.07812 507.91998l-1.671875 0l0 -10.640625q-0.59375 0.578125 -1.578125 1.15625q-0.984375 0.5625 -1.765625 0.859375l0 -1.625q1.40625 -0.65625 2.453125 -1.59375q1.046875 -0.9375 1.484375 -1.8125l1.078125 0l0 13.65625z" fill-rule="nonzero"></path><path fill="#cfe2f3" d="m317.0 487.0l33.007874 0l0 28.0l-33.007874 0z" fill-rule="evenodd"></path><path stroke="#000000" stroke-width="1.0" stroke-linejoin="round" stroke-linecap="butt" d="m317.0 487.0l33.007874 0l0 28.0l-33.007874 0z" fill-rule="evenodd"></path><path fill="#000000" d="m333.07812 507.91998l-1.671875 0l0 -10.640625q-0.59375 0.578125 -1.578125 1.15625q-0.984375 0.5625 -1.765625 0.859375l0 -1.625q1.40625 -0.65625 2.453125 -1.59375q1.046875 -0.9375 1.484375 -1.8125l1.078125 0l0 13.65625z" fill-rule="nonzero"></path><path fill="#cfe2f3" d="m349.0 487.0l33.007874 0l0 28.0l-33.007874 0z" fill-rule="evenodd"></path><path stroke="#000000" stroke-width="1.0" stroke-linejoin="round" stroke-linecap="butt" d="m349.0 487.0l33.007874 0l0 28.0l-33.007874 0z" fill-rule="evenodd"></path><path fill="#000000" d="m358.78125 501.21686q0 -2.421875 0.5 -3.890625q0.5 -1.46875 1.46875 -2.265625q0.984375 -0.796875 2.46875 -0.796875q1.09375 0 1.921875 0.4375q0.828125 0.4375 1.359375 1.28125q0.546875 0.828125 0.84375 2.015625q0.3125 1.1875 0.3125 3.21875q0 2.390625 -0.5 3.859375q-0.484375 1.46875 -1.46875 2.28125q-0.96875 0.796875 -2.46875 0.796875q-1.96875 0 -3.078125 -1.40625q-1.359375 -1.703125 -1.359375 -5.53125zm1.71875 0q0 3.34375 0.78125 4.453125q0.796875 1.109375 1.9375 1.109375q1.15625 0 1.9375 -1.109375q0.78125 -1.125 0.78125 -4.453125q0 -3.359375 -0.78125 -4.46875q-0.78125 -1.109375 -1.953125 -1.109375q-1.15625 0 -1.828125 0.984375q-0.875 1.234375 -0.875 4.59375z" fill-rule="nonzero"></path><path fill="#cfe2f3" d="m381.0 487.0l33.007874 0l0 28.0l-33.007874 0z" fill-rule="evenodd"></path><path stroke="#000000" stroke-width="1.0" stroke-linejoin="round" stroke-linecap="butt" d="m381.0 487.0l33.007874 0l0 28.0l-33.007874 0z" fill-rule="evenodd"></path><path fill="#000000" d="m397.07812 507.91998l-1.671875 0l0 -10.640625q-0.59375 0.578125 -1.578125 1.15625q-0.984375 0.5625 -1.765625 0.859375l0 -1.625q1.40625 -0.65625 2.453125 -1.59375q1.046875 -0.9375 1.484375 -1.8125l1.078125 0l0 13.65625z" fill-rule="nonzero"></path><path fill="#cfe2f3" d="m413.0 487.0l33.007874 0l0 28.0l-33.007874 0z" fill-rule="evenodd"></path><path stroke="#000000" stroke-width="1.0" stroke-linejoin="round" stroke-linecap="butt" d="m413.0 487.0l33.007874 0l0 28.0l-33.007874 0z" fill-rule="evenodd"></path><path fill="#000000" d="m429.07812 507.91998l-1.671875 0l0 -10.640625q-0.59375 0.578125 -1.578125 1.15625q-0.984375 0.5625 -1.765625 0.859375l0 -1.625q1.40625 -0.65625 2.453125 -1.59375q1.046875 -0.9375 1.484375 -1.8125l1.078125 0l0 13.65625z" fill-rule="nonzero"></path><path fill="#b6d7a8" d="m445.0 487.0l33.007874 0l0 28.0l-33.007874 0z" fill-rule="evenodd"></path><path stroke="#000000" stroke-width="1.0" stroke-linejoin="round" stroke-linecap="butt" d="m445.0 487.0l33.007874 0l0 28.0l-33.007874 0z" fill-rule="evenodd"></path><path fill="#000000" d="m454.78125 501.21686q0 -2.421875 0.5 -3.890625q0.5 -1.46875 1.46875 -2.265625q0.984375 -0.796875 2.46875 -0.796875q1.09375 0 1.921875 0.4375q0.828125 0.4375 1.359375 1.28125q0.546875 0.828125 0.84375 2.015625q0.3125 1.1875 0.3125 3.21875q0 2.390625 -0.5 3.859375q-0.484375 1.46875 -1.46875 2.28125q-0.96875 0.796875 -2.46875 0.796875q-1.96875 0 -3.078125 -1.40625q-1.359375 -1.703125 -1.359375 -5.53125zm1.71875 0q0 3.34375 0.78125 4.453125q0.796875 1.109375 1.9375 1.109375q1.15625 0 1.9375 -1.109375q0.78125 -1.125 0.78125 -4.453125q0 -3.359375 -0.78125 -4.46875q-0.78125 -1.109375 -1.953125 -1.109375q-1.15625 0 -1.828125 0.984375q-0.875 1.234375 -0.875 4.59375z" fill-rule="nonzero"></path><path fill="#cfe2f3" d="m477.0 487.0l33.007874 0l0 28.0l-33.007874 0z" fill-rule="evenodd"></path><path stroke="#000000" stroke-width="1.0" stroke-linejoin="round" stroke-linecap="butt" d="m477.0 487.0l33.007874 0l0 28.0l-33.007874 0z" fill-rule="evenodd"></path><path fill="#000000" d="m493.07812 507.91998l-1.671875 0l0 -10.640625q-0.59375 0.578125 -1.578125 1.15625q-0.984375 0.5625 -1.765625 0.859375l0 -1.625q1.40625 -0.65625 2.453125 -1.59375q1.046875 -0.9375 1.484375 -1.8125l1.078125 0l0 13.65625z" fill-rule="nonzero"></path><path fill="#cfe2f3" d="m509.0 487.0l33.007874 0l0 28.0l-33.007874 0z" fill-rule="evenodd"></path><path stroke="#000000" stroke-width="1.0" stroke-linejoin="round" stroke-linecap="butt" d="m509.0 487.0l33.007874 0l0 28.0l-33.007874 0z" fill-rule="evenodd"></path><path fill="#000000" d="m518.78125 501.21686q0 -2.421875 0.5 -3.890625q0.5 -1.46875 1.46875 -2.265625q0.984375 -0.796875 2.46875 -0.796875q1.09375 0 1.921875 0.4375q0.828125 0.4375 1.359375 1.28125q0.546875 0.828125 0.84375 2.015625q0.3125 1.1875 0.3125 3.21875q0 2.390625 -0.5 3.859375q-0.484375 1.46875 -1.46875 2.28125q-0.96875 0.796875 -2.46875 0.796875q-1.96875 0 -3.078125 -1.40625q-1.359375 -1.703125 -1.359375 -5.53125zm1.71875 0q0 3.34375 0.78125 4.453125q0.796875 1.109375 1.9375 1.109375q1.15625 0 1.9375 -1.109375q0.78125 -1.125 0.78125 -4.453125q0 -3.359375 -0.78125 -4.46875q-0.78125 -1.109375 -1.953125 -1.109375q-1.15625 0 -1.828125 0.984375q-0.875 1.234375 -0.875 4.59375z" fill-rule="nonzero"></path><path fill="#cfe2f3" d="m541.0 487.0l33.007874 0l0 28.0l-33.007874 0z" fill-rule="evenodd"></path><path stroke="#000000" stroke-width="1.0" stroke-linejoin="round" stroke-linecap="butt" d="m541.0 487.0l33.007874 0l0 28.0l-33.007874 0z" fill-rule="evenodd"></path><path fill="#000000" d="m557.0781 507.91998l-1.671875 0l0 -10.640625q-0.59375 0.578125 -1.578125 1.15625q-0.984375 0.5625 -1.765625 0.859375l0 -1.625q1.40625 -0.65625 2.453125 -1.59375q1.046875 -0.9375 1.484375 -1.8125l1.078125 0l0 13.65625z" fill-rule="nonzero"></path><path fill="#cfe2f3" d="m573.0 487.0l33.007874 0l0 28.0l-33.007874 0z" fill-rule="evenodd"></path><path stroke="#000000" stroke-width="1.0" stroke-linejoin="round" stroke-linecap="butt" d="m573.0 487.0l33.007874 0l0 28.0l-33.007874 0z" fill-rule="evenodd"></path><path fill="#000000" d="m582.78125 501.21686q0 -2.421875 0.5 -3.890625q0.5 -1.46875 1.46875 -2.265625q0.984375 -0.796875 2.46875 -0.796875q1.09375 0 1.921875 0.4375q0.828125 0.4375 1.359375 1.28125q0.546875 0.828125 0.84375 2.015625q0.3125 1.1875 0.3125 3.21875q0 2.390625 -0.5 3.859375q-0.484375 1.46875 -1.46875 2.28125q-0.96875 0.796875 -2.46875 0.796875q-1.96875 0 -3.078125 -1.40625q-1.359375 -1.703125 -1.359375 -5.53125zm1.71875 0q0 3.34375 0.78125 4.453125q0.796875 1.109375 1.9375 1.109375q1.15625 0 1.9375 -1.109375q0.78125 -1.125 0.78125 -4.453125q0 -3.359375 -0.78125 -4.46875q-0.78125 -1.109375 -1.953125 -1.109375q-1.15625 0 -1.828125 0.984375q-0.875 1.234375 -0.875 4.59375z" fill-rule="nonzero"></path><path fill="#cfe2f3" d="m605.0 487.0l33.007874 0l0 28.0l-33.007874 0z" fill-rule="evenodd"></path><path stroke="#000000" stroke-width="1.0" stroke-linejoin="round" stroke-linecap="butt" d="m605.0 487.0l33.007874 0l0 28.0l-33.007874 0z" fill-rule="evenodd"></path><path fill="#000000" d="m621.0781 507.91998l-1.671875 0l0 -10.640625q-0.59375 0.578125 -1.578125 1.15625q-0.984375 0.5625 -1.765625 0.859375l0 -1.625q1.40625 -0.65625 2.453125 -1.59375q1.046875 -0.9375 1.484375 -1.8125l1.078125 0l0 13.65625z" fill-rule="nonzero"></path><path fill="#cfe2f3" d="m637.0 487.0l33.007874 0l0 28.0l-33.007874 0z" fill-rule="evenodd"></path><path stroke="#000000" stroke-width="1.0" stroke-linejoin="round" stroke-linecap="butt" d="m637.0 487.0l33.007874 0l0 28.0l-33.007874 0z" fill-rule="evenodd"></path><path fill="#000000" d="m646.78125 501.21686q0 -2.421875 0.5 -3.890625q0.5 -1.46875 1.46875 -2.265625q0.984375 -0.796875 2.46875 -0.796875q1.09375 0 1.921875 0.4375q0.828125 0.4375 1.359375 1.28125q0.546875 0.828125 0.84375 2.015625q0.3125 1.1875 0.3125 3.21875q0 2.390625 -0.5 3.859375q-0.484375 1.46875 -1.46875 2.28125q-0.96875 0.796875 -2.46875 0.796875q-1.96875 0 -3.078125 -1.40625q-1.359375 -1.703125 -1.359375 -5.53125zm1.71875 0q0 3.34375 0.78125 4.453125q0.796875 1.109375 1.9375 1.109375q1.15625 0 1.9375 -1.109375q0.78125 -1.125 0.78125 -4.453125q0 -3.359375 -0.78125 -4.46875q-0.78125 -1.109375 -1.953125 -1.109375q-1.15625 0 -1.828125 0.984375q-0.875 1.234375 -0.875 4.59375z" fill-rule="nonzero"></path><path fill="#cfe2f3" d="m669.0 487.0l33.007874 0l0 28.0l-33.007874 0z" fill-rule="evenodd"></path><path stroke="#000000" stroke-width="1.0" stroke-linejoin="round" stroke-linecap="butt" d="m669.0 487.0l33.007874 0l0 28.0l-33.007874 0z" fill-rule="evenodd"></path><path fill="#000000" d="m685.0781 507.91998l-1.671875 0l0 -10.640625q-0.59375 0.578125 -1.578125 1.15625q-0.984375 0.5625 -1.765625 0.859375l0 -1.625q1.40625 -0.65625 2.453125 -1.59375q1.046875 -0.9375 1.484375 -1.8125l1.078125 0l0 13.65625z" fill-rule="nonzero"></path><path fill="#cfe2f3" d="m701.0 487.0l33.007874 0l0 28.0l-33.007874 0z" fill-rule="evenodd"></path><path stroke="#000000" stroke-width="1.0" stroke-linejoin="round" stroke-linecap="butt" d="m701.0 487.0l33.007874 0l0 28.0l-33.007874 0z" fill-rule="evenodd"></path><path fill="#000000" d="m710.78125 501.21686q0 -2.421875 0.5 -3.890625q0.5 -1.46875 1.46875 -2.265625q0.984375 -0.796875 2.46875 -0.796875q1.09375 0 1.921875 0.4375q0.828125 0.4375 1.359375 1.28125q0.546875 0.828125 0.84375 2.015625q0.3125 1.1875 0.3125 3.21875q0 2.390625 -0.5 3.859375q-0.484375 1.46875 -1.46875 2.28125q-0.96875 0.796875 -2.46875 0.796875q-1.96875 0 -3.078125 -1.40625q-1.359375 -1.703125 -1.359375 -5.53125zm1.71875 0q0 3.34375 0.78125 4.453125q0.796875 1.109375 1.9375 1.109375q1.15625 0 1.9375 -1.109375q0.78125 -1.125 0.78125 -4.453125q0 -3.359375 -0.78125 -4.46875q-0.78125 -1.109375 -1.953125 -1.109375q-1.15625 0 -1.828125 0.984375q-0.875 1.234375 -0.875 4.59375z" fill-rule="nonzero"></path><path fill="#cfe2f3" d="m733.0 487.0l33.007874 0l0 28.0l-33.007874 0z" fill-rule="evenodd"></path><path stroke="#000000" stroke-width="1.0" stroke-linejoin="round" stroke-linecap="butt" d="m733.0 487.0l33.007874 0l0 28.0l-33.007874 0z" fill-rule="evenodd"></path><path fill="#000000" d="m742.78125 501.21686q0 -2.421875 0.5 -3.890625q0.5 -1.46875 1.46875 -2.265625q0.984375 -0.796875 2.46875 -0.796875q1.09375 0 1.921875 0.4375q0.828125 0.4375 1.359375 1.28125q0.546875 0.828125 0.84375 2.015625q0.3125 1.1875 0.3125 3.21875q0 2.390625 -0.5 3.859375q-0.484375 1.46875 -1.46875 2.28125q-0.96875 0.796875 -2.46875 0.796875q-1.96875 0 -3.078125 -1.40625q-1.359375 -1.703125 -1.359375 -5.53125zm1.71875 0q0 3.34375 0.78125 4.453125q0.796875 1.109375 1.9375 1.109375q1.15625 0 1.9375 -1.109375q0.78125 -1.125 0.78125 -4.453125q0 -3.359375 -0.78125 -4.46875q-0.78125 -1.109375 -1.953125 -1.109375q-1.15625 0 -1.828125 0.984375q-0.875 1.234375 -0.875 4.59375z" fill-rule="nonzero"></path><path fill="#000000" fill-opacity="0.0" d="m145.0 199.50394l96.0 0l0 42.992126l-96.0 0z" fill-rule="evenodd"></path><path fill="#000000" d="m154.84375 223.39018q0 -1.4375 0.703125 -2.78125q0.703125 -1.34375 2.0 -2.046875q1.296875 -0.71875 2.90625 -0.71875q2.46875 0 4.046875 1.609375q1.578125 1.609375 1.578125 4.0625q0 2.46875 -1.59375 4.09375q-1.59375 1.625 -4.015625 1.625q-1.5 0 -2.859375 -0.671875q-1.359375 -0.6875 -2.0625 -1.984375q-0.703125 -1.3125 -0.703125 -3.1875zm2.953125 0.15625q0 1.609375 0.765625 2.46875q0.765625 0.859375 1.890625 0.859375q1.140625 0 1.890625 -0.859375q0.765625 -0.859375 0.765625 -2.5q0 -1.59375 -0.765625 -2.453125q-0.75 -0.859375 -1.890625 -0.859375q-1.125 0 -1.890625 0.859375q-0.765625 0.859375 -0.765625 2.484375zm17.903076 5.4375l0 -1.625q-0.59375 0.859375 -1.5625 1.375q-0.96875 0.5 -2.046875 0.5q-1.09375 0 -1.96875 -0.484375q-0.875 -0.484375 -1.265625 -1.359375q-0.375 -0.875 -0.375 -2.40625l0 -6.890625l2.875 0l0 5.0q0 2.296875 0.15625 2.828125q0.15625 0.515625 0.578125 0.8125q0.421875 0.296875 1.0625 0.296875q0.75 0 1.328125 -0.40625q0.59375 -0.40625 0.796875 -1.0q0.21875 -0.59375 0.21875 -2.9375l0 -4.59375l2.875 0l0 10.890625l-2.671875 0zm10.856201 -10.890625l0 2.296875l-1.96875 0l0 4.390625q0 1.328125 0.046875 1.546875q0.0625 0.21875 0.265625 0.375q0.203125 0.140625 0.484375 0.140625q0.40625 0 1.15625 -0.28125l0.25 2.234375q-1.0 0.4375 -2.28125 0.4375q-0.765625 0 -1.390625 -0.265625q-0.625 -0.265625 -0.921875 -0.671875q-0.296875 -0.421875 -0.40625 -1.125q-0.09375 -0.5 -0.09375 -2.03125l0 -4.75l-1.328125 0l0 -2.296875l1.328125 0l0 -2.15625l2.890625 -1.6875l0 3.84375l1.96875 0zm2.0243073 0l2.6875 0l0 1.59375q0.53125 -0.8125 1.421875 -1.328125q0.890625 -0.515625 1.96875 -0.515625q1.90625 0 3.21875 1.5q1.328125 1.484375 1.328125 4.140625q0 2.71875 -1.34375 4.234375q-1.328125 1.515625 -3.21875 1.515625q-0.90625 0 -1.640625 -0.359375q-0.734375 -0.359375 -1.53125 -1.234375l0 5.484375l-2.890625 0l0 -15.03125zm2.859375 5.265625q0 1.828125 0.71875 2.703125q0.734375 0.875 1.78125 0.875q1.0 0 1.65625 -0.796875q0.671875 -0.8125 0.671875 -2.640625q0 -1.71875 -0.6875 -2.546875q-0.6875 -0.828125 -1.6875 -0.828125q-1.0625 0 -1.765625 0.8125q-0.6875 0.8125 -0.6875 2.421875zm17.418701 5.625l0 -1.625q-0.59375 0.859375 -1.5625 1.375q-0.96875 0.5 -2.046875 0.5q-1.09375 0 -1.96875 -0.484375q-0.875 -0.484375 -1.265625 -1.359375q-0.375 -0.875 -0.375 -2.40625l0 -6.890625l2.875 0l0 5.0q0 2.296875 0.15625 2.828125q0.15625 0.515625 0.578125 0.8125q0.421875 0.296875 1.0625 0.296875q0.75 0 1.328125 -0.40625q0.59375 -0.40625 0.796875 -1.0q0.21875 -0.59375 0.21875 -2.9375l0 -4.59375l2.875 0l0 10.890625l-2.671875 0zm10.856201 -10.890625l0 2.296875l-1.96875 0l0 4.390625q0 1.328125 0.046875 1.546875q0.0625 0.21875 0.265625 0.375q0.203125 0.140625 0.484375 0.140625q0.40625 0 1.15625 -0.28125l0.25 2.234375q-1.0 0.4375 -2.28125 0.4375q-0.765625 0 -1.390625 -0.265625q-0.625 -0.265625 -0.921875 -0.671875q-0.296875 -0.421875 -0.40625 -1.125q-0.09375 -0.5 -0.09375 -2.03125l0 -4.75l-1.328125 0l0 -2.296875l1.328125 0l0 -2.15625l2.890625 -1.6875l0 3.84375l1.96875 0zm2.6649323 2.875l0 -2.875l2.875 0l0 2.875l-2.875 0zm0 8.015625l0 -2.875l2.875 0l0 2.875l-2.875 0z" fill-rule="nonzero"></path><path fill="#000000" fill-opacity="0.0" d="m152.49606 479.50394l85.00787 0l0 42.992096l-85.00787 0z" fill-rule="evenodd"></path><path fill="#000000" d="m168.9217 496.62457l0 -2.671875l2.890625 0l0 2.671875l-2.890625 0zm0 12.359375l0 -10.890625l2.890625 0l0 10.890625l-2.890625 0zm15.831894 0l-2.875 0l0 -5.5625q0 -1.765625 -0.1875 -2.28125q-0.1875 -0.515625 -0.609375 -0.796875q-0.40625 -0.296875 -0.984375 -0.296875q-0.75 0 -1.34375 0.421875q-0.59375 0.40625 -0.8125 1.09375q-0.21875 0.671875 -0.21875 2.484375l0 4.9375l-2.890625 0l0 -10.890625l2.671875 0l0 1.59375q1.4375 -1.84375 3.59375 -1.84375q0.953125 0 1.734375 0.34375q0.796875 0.34375 1.203125 0.890625q0.40625 0.53125 0.5625 1.203125q0.15625 0.671875 0.15625 1.9375l0 6.765625zm3.0437012 -10.890625l2.6875 0l0 1.59375q0.53125 -0.8125 1.421875 -1.328125q0.890625 -0.515625 1.96875 -0.515625q1.90625 0 3.21875 1.5q1.328125 1.484375 1.328125 4.140625q0 2.71875 -1.34375 4.234375q-1.328125 1.515625 -3.21875 1.515625q-0.90625 0 -1.640625 -0.359375q-0.734375 -0.359375 -1.53125 -1.234375l0 5.484375l-2.890625 0l0 -15.03125zm2.859375 5.265625q0 1.828125 0.71875 2.703125q0.734375 0.875 1.78125 0.875q1.0 0 1.65625 -0.796875q0.671875 -0.8125 0.671875 -2.640625q0 -1.71875 -0.6875 -2.546875q-0.6875 -0.828125 -1.6875 -0.828125q-1.0625 0 -1.765625 0.8125q-0.6875 0.8125 -0.6875 2.421875zm17.418701 5.625l0 -1.625q-0.59375 0.859375 -1.5625 1.375q-0.96875 0.5 -2.046875 0.5q-1.09375 0 -1.96875 -0.484375q-0.875 -0.484375 -1.265625 -1.359375q-0.375 -0.875 -0.375 -2.40625l0 -6.890625l2.875 0l0 5.0q0 2.296875 0.15625 2.828125q0.15625 0.515625 0.578125 0.8125q0.421875 0.296875 1.0625 0.296875q0.75 0 1.328125 -0.40625q0.59375 -0.40625 0.796875 -1.0q0.21875 -0.59375 0.21875 -2.9375l0 -4.59375l2.875 0l0 10.890625l-2.671875 0zm10.856201 -10.890625l0 2.296875l-1.96875 0l0 4.390625q0 1.328125 0.046875 1.546875q0.0625 0.21875 0.265625 0.375q0.203125 0.140625 0.484375 0.140625q0.40625 0 1.15625 -0.28125l0.25 2.234375q-1.0 0.4375 -2.28125 0.4375q-0.765625 0 -1.390625 -0.265625q-0.625 -0.265625 -0.921875 -0.671875q-0.296875 -0.421875 -0.40625 -1.125q-0.09375 -0.5 -0.09375 -2.03125l0 -4.75l-1.328125 0l0 -2.296875l1.328125 0l0 -2.15625l2.890625 -1.6875l0 3.84375l1.96875 0zm2.6649323 2.875l0 -2.875l2.875 0l0 2.875l-2.875 0zm0 8.015625l0 -2.875l2.875 0l0 2.875l-2.875 0z" fill-rule="nonzero"></path><path fill="#cfe2f3" d="m238.98425 568.6695l0 0c0 -5.340332 4.329178 -9.669495 9.669479 -9.669495l90.67677 0c2.5645142 0 5.023987 1.0187378 6.837372 2.8321533c1.813385 1.8133545 2.8321228 4.272827 2.8321228 6.8373413l0 38.676758c0 5.340332 -4.3291626 9.669495 -9.669495 9.669495l-90.67677 0c-5.3403015 0 -9.669479 -4.3291626 -9.669479 -9.669495z" fill-rule="evenodd"></path><path stroke="#000000" stroke-width="1.0" stroke-linejoin="round" stroke-linecap="butt" d="m238.98425 568.6695l0 0c0 -5.340332 4.329178 -9.669495 9.669479 -9.669495l90.67677 0c2.5645142 0 5.023987 1.0187378 6.837372 2.8321533c1.813385 1.8133545 2.8321228 4.272827 2.8321228 6.8373413l0 38.676758c0 5.340332 -4.3291626 9.669495 -9.669495 9.669495l-90.67677 0c-5.3403015 0 -9.669479 -4.3291626 -9.669479 -9.669495z" fill-rule="evenodd"></path><path fill="#000000" d="m252.06635 587.7091l0 -13.640625l1.53125 0l0 1.28125q0.53125 -0.75 1.203125 -1.125q0.6875 -0.375 1.640625 -0.375q1.265625 0 2.234375 0.65625q0.96875 0.640625 1.453125 1.828125q0.5 1.1875 0.5 2.59375q0 1.515625 -0.546875 2.734375q-0.546875 1.203125 -1.578125 1.84375q-1.03125 0.640625 -2.171875 0.640625q-0.84375 0 -1.515625 -0.34375q-0.65625 -0.359375 -1.078125 -0.890625l0 4.796875l-1.671875 0zm1.515625 -8.65625q0 1.90625 0.765625 2.8125q0.78125 0.90625 1.875 0.90625q1.109375 0 1.890625 -0.9375q0.796875 -0.9375 0.796875 -2.921875q0 -1.875 -0.78125 -2.8125q-0.765625 -0.9375 -1.84375 -0.9375q-1.0625 0 -1.890625 1.0q-0.8125 1.0 -0.8125 2.890625zm12.047607 8.875q-1.375 -1.75 -2.328125 -4.078125q-0.953125 -2.34375 -0.953125 -4.84375q0 -2.21875 0.703125 -4.234375q0.84375 -2.34375 2.578125 -4.671875l1.203125 0q-1.125 1.921875 -1.484375 2.75q-0.5625 1.28125 -0.890625 2.671875q-0.40625 1.734375 -0.40625 3.484375q0 4.46875 2.78125 8.921875l-1.203125 0zm2.556427 -10.703125q0 -2.421875 0.5 -3.890625q0.5 -1.46875 1.46875 -2.265625q0.984375 -0.796875 2.46875 -0.796875q1.09375 0 1.921875 0.4375q0.828125 0.4375 1.359375 1.28125q0.546875 0.828125 0.84375 2.015625q0.3125 1.1875 0.3125 3.21875q0 2.390625 -0.5 3.859375q-0.484375 1.46875 -1.46875 2.28125q-0.96875 0.796875 -2.46875 0.796875q-1.96875 0 -3.078125 -1.40625q-1.359375 -1.703125 -1.359375 -5.53125zm1.71875 0q0 3.34375 0.78125 4.453125q0.796875 1.109375 1.9375 1.109375q1.15625 0 1.9375 -1.109375q0.78125 -1.125 0.78125 -4.453125q0 -3.359375 -0.78125 -4.46875q-0.78125 -1.109375 -1.953125 -1.109375q-1.15625 0 -1.828125 0.984375q-0.875 1.234375 -0.875 4.59375zm10.219452 10.703125l-1.1875 0q2.765625 -4.453125 2.765625 -8.921875q0 -1.734375 -0.390625 -3.453125q-0.328125 -1.390625 -0.890625 -2.671875q-0.359375 -0.84375 -1.484375 -2.78125l1.1875 0q1.75 2.328125 2.578125 4.671875q0.71875 2.015625 0.71875 4.234375q0 2.5 -0.96875 4.84375q-0.953125 2.328125 -2.328125 4.078125zm19.083496 -12.0l-8.96875 0l0 -1.5625l8.96875 0l0 1.5625zm0 4.125l-8.96875 0l0 -1.546875l8.96875 0l0 1.546875zm6.828247 -2.828125q0 -2.421875 0.5 -3.890625q0.5 -1.46875 1.46875 -2.265625q0.984375 -0.796875 2.46875 -0.796875q1.09375 0 1.921875 0.4375q0.828125 0.4375 1.359375 1.28125q0.546875 0.828125 0.84375 2.015625q0.3125 1.1875 0.3125 3.21875q0 2.390625 -0.5 3.859375q-0.484375 1.46875 -1.46875 2.28125q-0.96875 0.796875 -2.46875 0.796875q-1.96875 0 -3.078125 -1.40625q-1.359375 -1.703125 -1.359375 -5.53125zm1.71875 0q0 3.34375 0.78125 4.453125q0.796875 1.109375 1.9375 1.109375q1.15625 0 1.9375 -1.109375q0.78125 -1.125 0.78125 -4.453125q0 -3.359375 -0.78125 -4.46875q-0.78125 -1.109375 -1.953125 -1.109375q-1.15625 0 -1.828125 0.984375q-0.875 1.234375 -0.875 4.59375zm9.594482 6.703125l0 -1.90625l1.90625 0l0 1.90625l-1.90625 0zm4.2457886 -3.5625l1.765625 -0.15625q0.1875 1.28125 0.890625 1.9375q0.71875 0.640625 1.71875 0.640625q1.203125 0 2.03125 -0.90625q0.84375 -0.90625 0.84375 -2.421875q0 -1.421875 -0.8125 -2.25q-0.796875 -0.828125 -2.09375 -0.828125q-0.796875 0 -1.453125 0.375q-0.640625 0.359375 -1.015625 0.953125l-1.578125 -0.203125l1.328125 -7.0l6.765625 0l0 1.609375l-5.4375 0l-0.734375 3.640625q1.234375 -0.84375 2.578125 -0.84375q1.78125 0 3.0 1.234375q1.234375 1.234375 1.234375 3.171875q0 1.84375 -1.078125 3.1875q-1.3125 1.65625 -3.578125 1.65625q-1.859375 0 -3.03125 -1.03125q-1.171875 -1.046875 -1.34375 -2.765625z" fill-rule="nonzero"></path><path fill="#000000" d="m252.06635 609.7091l0 -13.640625l1.53125 0l0 1.28125q0.53125 -0.75 1.203125 -1.125q0.6875 -0.375 1.640625 -0.375q1.265625 0 2.234375 0.65625q0.96875 0.640625 1.453125 1.828125q0.5 1.1875 0.5 2.59375q0 1.515625 -0.546875 2.734375q-0.546875 1.203125 -1.578125 1.84375q-1.03125 0.640625 -2.171875 0.640625q-0.84375 0 -1.515625 -0.34375q-0.65625 -0.359375 -1.078125 -0.890625l0 4.796875l-1.671875 0zm1.515625 -8.65625q0 1.90625 0.765625 2.8125q0.78125 0.90625 1.875 0.90625q1.109375 0 1.890625 -0.9375q0.796875 -0.9375 0.796875 -2.921875q0 -1.875 -0.78125 -2.8125q-0.765625 -0.9375 -1.84375 -0.9375q-1.0625 0 -1.890625 1.0q-0.8125 1.0 -0.8125 2.890625zm12.047607 8.875q-1.375 -1.75 -2.328125 -4.078125q-0.953125 -2.34375 -0.953125 -4.84375q0 -2.21875 0.703125 -4.234375q0.84375 -2.34375 2.578125 -4.671875l1.203125 0q-1.125 1.921875 -1.484375 2.75q-0.5625 1.28125 -0.890625 2.671875q-0.40625 1.734375 -0.40625 3.484375q0 4.46875 2.78125 8.921875l-1.203125 0zm8.853302 -4.0l-1.671875 0l0 -10.640625q-0.59375 0.578125 -1.578125 1.15625q-0.984375 0.5625 -1.765625 0.859375l0 -1.625q1.40625 -0.65625 2.453125 -1.59375q1.046875 -0.9375 1.484375 -1.8125l1.078125 0l0 13.65625zm5.641327 4.0l-1.1875 0q2.765625 -4.453125 2.765625 -8.921875q0 -1.734375 -0.390625 -3.453125q-0.328125 -1.390625 -0.890625 -2.671875q-0.359375 -0.84375 -1.484375 -2.78125l1.1875 0q1.75 2.328125 2.578125 4.671875q0.71875 2.015625 0.71875 4.234375q0 2.5 -0.96875 4.84375q-0.953125 2.328125 -2.328125 4.078125zm19.083496 -12.0l-8.96875 0l0 -1.5625l8.96875 0l0 1.5625zm0 4.125l-8.96875 0l0 -1.546875l8.96875 0l0 1.546875zm6.828247 -2.828125q0 -2.421875 0.5 -3.890625q0.5 -1.46875 1.46875 -2.265625q0.984375 -0.796875 2.46875 -0.796875q1.09375 0 1.921875 0.4375q0.828125 0.4375 1.359375 1.28125q0.546875 0.828125 0.84375 2.015625q0.3125 1.1875 0.3125 3.21875q0 2.390625 -0.5 3.859375q-0.484375 1.46875 -1.46875 2.28125q-0.96875 0.796875 -2.46875 0.796875q-1.96875 0 -3.078125 -1.40625q-1.359375 -1.703125 -1.359375 -5.53125zm1.71875 0q0 3.34375 0.78125 4.453125q0.796875 1.109375 1.9375 1.109375q1.15625 0 1.9375 -1.109375q0.78125 -1.125 0.78125 -4.453125q0 -3.359375 -0.78125 -4.46875q-0.78125 -1.109375 -1.953125 -1.109375q-1.15625 0 -1.828125 0.984375q-0.875 1.234375 -0.875 4.59375zm9.594482 6.703125l0 -1.90625l1.90625 0l0 1.90625l-1.90625 0zm4.2457886 -3.5625l1.765625 -0.15625q0.1875 1.28125 0.890625 1.9375q0.71875 0.640625 1.71875 0.640625q1.203125 0 2.03125 -0.90625q0.84375 -0.90625 0.84375 -2.421875q0 -1.421875 -0.8125 -2.25q-0.796875 -0.828125 -2.09375 -0.828125q-0.796875 0 -1.453125 0.375q-0.640625 0.359375 -1.015625 0.953125l-1.578125 -0.203125l1.328125 -7.0l6.765625 0l0 1.609375l-5.4375 0l-0.734375 3.640625q1.234375 -0.84375 2.578125 -0.84375q1.78125 0 3.0 1.234375q1.234375 1.234375 1.234375 3.171875q0 1.84375 -1.078125 3.1875q-1.3125 1.65625 -3.578125 1.65625q-1.859375 0 -3.03125 -1.03125q-1.171875 -1.046875 -1.34375 -2.765625z" fill-rule="nonzero"></path><path fill="#cfe2f3" d="m253.0 548.0l16.503937 -14.0l16.503937 14.0l-8.251953 0l0 14.0l-16.503937 0l0 -14.0z" fill-rule="evenodd"></path><path stroke="#000000" stroke-width="1.0" stroke-linejoin="round" stroke-linecap="butt" d="m253.0 548.0l16.503937 -14.0l16.503937 14.0l-8.251953 0l0 14.0l-16.503937 0l0 -14.0z" fill-rule="evenodd"></path><path fill="#cfe2f3" d="m534.49603 116.66949l0 0c0 -5.340309 4.3292236 -9.669487 9.669495 -9.669487l90.67682 0c2.5645142 0 5.023987 1.0187454 6.8373413 2.8321228c1.8133545 1.813385 2.8321533 4.2728577 2.8321533 6.837364l0 38.67678c0 5.3403015 -4.3292236 9.669479 -9.669495 9.669479l-90.67682 0c-5.340271 0 -9.669495 -4.329178 -9.669495 -9.669479z" fill-rule="evenodd"></path><path stroke="#000000" stroke-width="1.0" stroke-linejoin="round" stroke-linecap="butt" d="m534.49603 116.66949l0 0c0 -5.340309 4.3292236 -9.669487 9.669495 -9.669487l90.67682 0c2.5645142 0 5.023987 1.0187454 6.8373413 2.8321228c1.8133545 1.813385 2.8321533 4.2728577 2.8321533 6.837364l0 38.67678c0 5.3403015 -4.3292236 9.669479 -9.669495 9.669479l-90.67682 0c-5.340271 0 -9.669495 -4.329178 -9.669495 -9.669479z" fill-rule="evenodd"></path><path fill="#000000" d="m547.5782 135.70912l0 -13.640625l1.53125 0l0 1.28125q0.53125 -0.75 1.203125 -1.125q0.6875 -0.375 1.640625 -0.375q1.265625 0 2.234375 0.65625q0.96875 0.640625 1.453125 1.828125q0.5 1.1875 0.5 2.59375q0 1.515625 -0.546875 2.734375q-0.546875 1.203125 -1.578125 1.84375q-1.03125 0.640625 -2.171875 0.640625q-0.84375 0 -1.515625 -0.34375q-0.65625 -0.359375 -1.078125 -0.890625l0 4.796875l-1.671875 0zm1.515625 -8.65625q0 1.90625 0.765625 2.8125q0.78125 0.90625 1.875 0.90625q1.109375 0 1.890625 -0.9375q0.796875 -0.9375 0.796875 -2.921875q0 -1.875 -0.78125 -2.8125q-0.765625 -0.9375 -1.84375 -0.9375q-1.0625 0 -1.890625 1.0q-0.8125 1.0 -0.8125 2.890625zm12.047546 8.875q-1.375 -1.75 -2.328125 -4.078125q-0.953125 -2.34375 -0.953125 -4.84375q0 -2.21875 0.703125 -4.234375q0.84375 -2.34375 2.578125 -4.671875l1.203125 0q-1.125 1.921875 -1.484375 2.75q-0.5625 1.28125 -0.890625 2.671875q-0.40625 1.734375 -0.40625 3.484375q0 4.46875 2.78125 8.921875l-1.203125 0zm2.5564575 -10.703125q0 -2.421875 0.5 -3.890625q0.5 -1.46875 1.46875 -2.265625q0.984375 -0.796875 2.46875 -0.796875q1.09375 0 1.921875 0.4375q0.828125 0.4375 1.359375 1.28125q0.546875 0.828125 0.84375 2.015625q0.3125 1.1875 0.3125 3.21875q0 2.390625 -0.5 3.859375q-0.484375 1.46875 -1.46875 2.28125q-0.96875 0.796875 -2.46875 0.796875q-1.96875 0 -3.078125 -1.40625q-1.359375 -1.703125 -1.359375 -5.53125zm1.71875 0q0 3.34375 0.78125 4.453125q0.796875 1.109375 1.9375 1.109375q1.15625 0 1.9375 -1.109375q0.78125 -1.125 0.78125 -4.453125q0 -3.359375 -0.78125 -4.46875q-0.78125 -1.109375 -1.953125 -1.109375q-1.15625 0 -1.828125 0.984375q-0.875 1.234375 -0.875 4.59375zm10.219482 10.703125l-1.1875 0q2.765625 -4.453125 2.765625 -8.921875q0 -1.734375 -0.390625 -3.453125q-0.328125 -1.390625 -0.890625 -2.671875q-0.359375 -0.84375 -1.484375 -2.78125l1.1875 0q1.75 2.328125 2.578125 4.671875q0.71875 2.015625 0.71875 4.234375q0 2.5 -0.96875 4.84375q-0.953125 2.328125 -2.328125 4.078125zm19.083435 -12.0l-8.96875 0l0 -1.5625l8.96875 0l0 1.5625zm0 4.125l-8.96875 0l0 -1.546875l8.96875 0l0 1.546875zm6.828308 -2.828125q0 -2.421875 0.5 -3.890625q0.5 -1.46875 1.46875 -2.265625q0.984375 -0.796875 2.46875 -0.796875q1.09375 0 1.921875 0.4375q0.828125 0.4375 1.359375 1.28125q0.546875 0.828125 0.84375 2.015625q0.3125 1.1875 0.3125 3.21875q0 2.390625 -0.5 3.859375q-0.484375 1.46875 -1.46875 2.28125q-0.96875 0.796875 -2.46875 0.796875q-1.96875 0 -3.078125 -1.40625q-1.359375 -1.703125 -1.359375 -5.53125zm1.71875 0q0 3.34375 0.78125 4.453125q0.796875 1.109375 1.9375 1.109375q1.15625 0 1.9375 -1.109375q0.78125 -1.125 0.78125 -4.453125q0 -3.359375 -0.78125 -4.46875q-0.78125 -1.109375 -1.953125 -1.109375q-1.15625 0 -1.828125 0.984375q-0.875 1.234375 -0.875 4.59375zm9.594421 6.703125l0 -1.90625l1.90625 0l0 1.90625l-1.90625 0zm4.2458496 -3.5625l1.765625 -0.15625q0.1875 1.28125 0.890625 1.9375q0.71875 0.640625 1.71875 0.640625q1.203125 0 2.03125 -0.90625q0.84375 -0.90625 0.84375 -2.421875q0 -1.421875 -0.8125 -2.25q-0.796875 -0.828125 -2.09375 -0.828125q-0.796875 0 -1.453125 0.375q-0.640625 0.359375 -1.015625 0.953125l-1.578125 -0.203125l1.328125 -7.0l6.765625 0l0 1.609375l-5.4375 0l-0.734375 3.640625q1.234375 -0.84375 2.578125 -0.84375q1.78125 0 3.0 1.234375q1.234375 1.234375 1.234375 3.171875q0 1.84375 -1.078125 3.1875q-1.3125 1.65625 -3.578125 1.65625q-1.859375 0 -3.03125 -1.03125q-1.171875 -1.046875 -1.34375 -2.765625z" fill-rule="nonzero"></path><path fill="#000000" d="m547.5782 157.70912l0 -13.640625l1.53125 0l0 1.28125q0.53125 -0.75 1.203125 -1.125q0.6875 -0.375 1.640625 -0.375q1.265625 0 2.234375 0.65625q0.96875 0.640625 1.453125 1.828125q0.5 1.1875 0.5 2.59375q0 1.515625 -0.546875 2.734375q-0.546875 1.203125 -1.578125 1.84375q-1.03125 0.640625 -2.171875 0.640625q-0.84375 0 -1.515625 -0.34375q-0.65625 -0.359375 -1.078125 -0.890625l0 4.796875l-1.671875 0zm1.515625 -8.65625q0 1.90625 0.765625 2.8125q0.78125 0.90625 1.875 0.90625q1.109375 0 1.890625 -0.9375q0.796875 -0.9375 0.796875 -2.921875q0 -1.875 -0.78125 -2.8125q-0.765625 -0.9375 -1.84375 -0.9375q-1.0625 0 -1.890625 1.0q-0.8125 1.0 -0.8125 2.890625zm12.047546 8.875q-1.375 -1.75 -2.328125 -4.078125q-0.953125 -2.34375 -0.953125 -4.84375q0 -2.21875 0.703125 -4.234375q0.84375 -2.34375 2.578125 -4.671875l1.203125 0q-1.125 1.921875 -1.484375 2.75q-0.5625 1.28125 -0.890625 2.671875q-0.40625 1.734375 -0.40625 3.484375q0 4.46875 2.78125 8.921875l-1.203125 0zm8.8533325 -4.0l-1.671875 0l0 -10.640625q-0.59375 0.578125 -1.578125 1.15625q-0.984375 0.5625 -1.765625 0.859375l0 -1.625q1.40625 -0.65625 2.453125 -1.59375q1.046875 -0.9375 1.484375 -1.8125l1.078125 0l0 13.65625zm5.6413574 4.0l-1.1875 0q2.765625 -4.453125 2.765625 -8.921875q0 -1.734375 -0.390625 -3.453125q-0.328125 -1.390625 -0.890625 -2.671875q-0.359375 -0.84375 -1.484375 -2.78125l1.1875 0q1.75 2.328125 2.578125 4.671875q0.71875 2.015625 0.71875 4.234375q0 2.5 -0.96875 4.84375q-0.953125 2.328125 -2.328125 4.078125zm19.083435 -12.0l-8.96875 0l0 -1.5625l8.96875 0l0 1.5625zm0 4.125l-8.96875 0l0 -1.546875l8.96875 0l0 1.546875zm6.828308 -2.828125q0 -2.421875 0.5 -3.890625q0.5 -1.46875 1.46875 -2.265625q0.984375 -0.796875 2.46875 -0.796875q1.09375 0 1.921875 0.4375q0.828125 0.4375 1.359375 1.28125q0.546875 0.828125 0.84375 2.015625q0.3125 1.1875 0.3125 3.21875q0 2.390625 -0.5 3.859375q-0.484375 1.46875 -1.46875 2.28125q-0.96875 0.796875 -2.46875 0.796875q-1.96875 0 -3.078125 -1.40625q-1.359375 -1.703125 -1.359375 -5.53125zm1.71875 0q0 3.34375 0.78125 4.453125q0.796875 1.109375 1.9375 1.109375q1.15625 0 1.9375 -1.109375q0.78125 -1.125 0.78125 -4.453125q0 -3.359375 -0.78125 -4.46875q-0.78125 -1.109375 -1.953125 -1.109375q-1.15625 0 -1.828125 0.984375q-0.875 1.234375 -0.875 4.59375zm9.594421 6.703125l0 -1.90625l1.90625 0l0 1.90625l-1.90625 0zm4.2458496 -3.5625l1.765625 -0.15625q0.1875 1.28125 0.890625 1.9375q0.71875 0.640625 1.71875 0.640625q1.203125 0 2.03125 -0.90625q0.84375 -0.90625 0.84375 -2.421875q0 -1.421875 -0.8125 -2.25q-0.796875 -0.828125 -2.09375 -0.828125q-0.796875 0 -1.453125 0.375q-0.640625 0.359375 -1.015625 0.953125l-1.578125 -0.203125l1.328125 -7.0l6.765625 0l0 1.609375l-5.4375 0l-0.734375 3.640625q1.234375 -0.84375 2.578125 -0.84375q1.78125 0 3.0 1.234375q1.234375 1.234375 1.234375 3.171875q0 1.84375 -1.078125 3.1875q-1.3125 1.65625 -3.578125 1.65625q-1.859375 0 -3.03125 -1.03125q-1.171875 -1.046875 -1.34375 -2.765625z" fill-rule="nonzero"></path><path fill="#cfe2f3" d="m538.51184 174.0l9.496033 0l0 -14.0l18.992126 0l0 14.0l9.496033 0l-18.992065 14.0z" fill-rule="evenodd"></path><path stroke="#000000" stroke-width="1.0" stroke-linejoin="round" stroke-linecap="butt" d="m538.51184 174.0l9.496033 0l0 -14.0l18.992126 0l0 14.0l9.496033 0l-18.992065 14.0z" fill-rule="evenodd"></path><path fill="#000000" fill-opacity="0.0" d="m365.0 344.4963l0 0c0 -6.349243 5.147064 -11.496307 11.496307 -11.496307l152.53494 0c3.0490112 0 5.9731445 1.2112122 8.12915 3.3671875c2.1559448 2.1559753 3.3671875 5.0801086 3.3671875 8.12912l0 45.983765c0 6.349243 -5.1470947 11.496307 -11.496338 11.496307l-152.53494 0l0 0c-6.349243 0 -11.496307 -5.147064 -11.496307 -11.496307z" fill-rule="evenodd"></path><path stroke="#000000" stroke-width="1.0" stroke-linejoin="round" stroke-linecap="butt" stroke-dasharray="4.0,3.0" d="m365.0 344.4963l0 0c0 -6.349243 5.147064 -11.496307 11.496307 -11.496307l152.53494 0c3.0490112 0 5.9731445 1.2112122 8.12915 3.3671875c2.1559448 2.1559753 3.3671875 5.0801086 3.3671875 8.12912l0 45.983765c0 6.349243 -5.1470947 11.496307 -11.496338 11.496307l-152.53494 0l0 0c-6.349243 0 -11.496307 -5.147064 -11.496307 -11.496307z" fill-rule="evenodd"></path><path fill="#d9ead3" d="m388.25986 353.0l33.007874 0l0 28.0l-33.007874 0z" fill-rule="evenodd"></path><path stroke="#000000" stroke-width="1.0" stroke-linejoin="round" stroke-linecap="butt" stroke-dasharray="4.0,3.0" d="m388.25986 353.0l33.007874 0l0 28.0l-33.007874 0z" fill-rule="evenodd"></path><path fill="#d9ead3" d="m420.25986 353.0l33.007874 0l0 28.0l-33.007874 0z" fill-rule="evenodd"></path><path stroke="#000000" stroke-width="1.0" stroke-linejoin="round" stroke-linecap="butt" stroke-dasharray="4.0,3.0" d="m420.25986 353.0l33.007874 0l0 28.0l-33.007874 0z" fill-rule="evenodd"></path><path fill="#d9ead3" d="m452.25986 353.0l33.007874 0l0 28.0l-33.007874 0z" fill-rule="evenodd"></path><path stroke="#000000" stroke-width="1.0" stroke-linejoin="round" stroke-linecap="butt" stroke-dasharray="4.0,3.0" d="m452.25986 353.0l33.007874 0l0 28.0l-33.007874 0z" fill-rule="evenodd"></path><path fill="#d9ead3" d="m484.25986 353.0l33.007843 0l0 28.0l-33.007843 0z" fill-rule="evenodd"></path><path stroke="#000000" stroke-width="1.0" stroke-linejoin="round" stroke-linecap="butt" stroke-dasharray="4.0,3.0" d="m484.25986 353.0l33.007843 0l0 28.0l-33.007843 0z" fill-rule="evenodd"></path><path fill="#000000" fill-opacity="0.0" d="m517.2677 367.0l56.724426 0" fill-rule="evenodd"></path><path stroke="#000000" stroke-width="2.0" stroke-linejoin="round" stroke-linecap="butt" d="m517.2677 367.0l44.724426 0" fill-rule="evenodd"></path><path fill="#000000" stroke="#000000" stroke-width="2.0" stroke-linecap="butt" d="m561.9921 370.30347l9.076172 -3.3034668l-9.076172 -3.3034668z" fill-rule="evenodd"></path><path fill="#000000" fill-opacity="0.0" d="m636.7638 333.0l-79.24408 -98.01575" fill-rule="evenodd"></path><path stroke="#000000" stroke-width="2.0" stroke-linejoin="round" stroke-linecap="butt" d="m636.7638 333.0l-71.699585 -88.68405" fill-rule="evenodd"></path><path fill="#000000" stroke="#000000" stroke-width="2.0" stroke-linecap="butt" d="m567.6331 242.23901l-8.2752075 -4.9810944l3.1373901 9.134933z" fill-rule="evenodd"></path><path fill="#000000" fill-opacity="0.0" d="m557.5197 487.01575l79.24408 -85.03937" fill-rule="evenodd"></path><path stroke="#000000" stroke-width="2.0" stroke-linejoin="round" stroke-linecap="butt" d="m557.5197 487.01575l71.06323 -76.26022" fill-rule="evenodd"></path><path fill="#000000" stroke="#000000" stroke-width="2.0" stroke-linecap="butt" d="m630.9997 413.00763l3.770813 -8.892212l-8.60437 4.3880005z" fill-rule="evenodd"></path><path fill="#000000" fill-opacity="0.0" d="m525.50397 487.0l-72.72443 -85.03937" fill-rule="evenodd"></path><path stroke="#000000" stroke-width="2.0" stroke-linejoin="round" stroke-linecap="butt" stroke-dasharray="8.0,6.0" d="m525.50397 487.0l-64.92523 -75.919464" fill-rule="evenodd"></path><path fill="#000000" stroke="#000000" stroke-width="2.0" stroke-linecap="butt" d="m463.08932 408.9335l-8.409515 -4.7507935l3.3883057 9.044861z" fill-rule="evenodd"></path><path fill="#000000" fill-opacity="0.0" d="m452.7638 333.0l72.75592 -98.01575" fill-rule="evenodd"></path><path stroke="#000000" stroke-width="2.0" stroke-linejoin="round" stroke-linecap="butt" stroke-dasharray="8.0,6.0" d="m452.7638 333.0l65.603516 -88.38019" fill-rule="evenodd"></path><path fill="#000000" stroke="#000000" stroke-width="2.0" stroke-linecap="butt" d="m521.0199 246.58876l2.757141 -9.256805l-8.062256 5.318878z" fill-rule="evenodd"></path><path fill="#000000" fill-opacity="0.0" d="m293.99213 367.0l94.26773 0" fill-rule="evenodd"></path><path stroke="#000000" stroke-width="2.0" stroke-linejoin="round" stroke-linecap="butt" stroke-dasharray="8.0,6.0" d="m293.99213 367.0l82.26773 0" fill-rule="evenodd"></path><path fill="#000000" stroke="#000000" stroke-width="2.0" stroke-linecap="butt" d="m376.25986 370.30347l9.076172 -3.3034668l-9.076172 -3.3034668z" fill-rule="evenodd"></path></g></svg>

