<?xml version="1.0" standalone="yes"?>

<svg version="1.1" viewBox="0.0 0.0 1024.0 768.0" fill="none" stroke="none" stroke-linecap="square" stroke-miterlimit="10" xmlns="http://www.w3.org/2000/svg" xmlns:xlink="http://www.w3.org/1999/xlink"><clipPath id="p.0"><path d="m0 0l1024.0 0l0 768.0l-1024.0 0l0 -768.0z" clip-rule="nonzero"></path></clipPath><g clip-path="url(#p.0)"><path fill="#000000" fill-opacity="0.0" d="m0 0l1024.0 0l0 768.0l-1024.0 0z" fill-rule="evenodd"></path><path fill="#d9ead3" d="m141.0 111.0l33.007874 0l0 28.0l-33.007874 0z" fill-rule="evenodd"></path><path stroke="#000000" stroke-width="1.0" stroke-linejoin="round" stroke-linecap="butt" d="m141.0 111.0l33.007874 0l0 28.0l-33.007874 0z" fill-rule="evenodd"></path><path fill="#d9ead3" d="m173.0 111.0l33.007874 0l0 28.0l-33.007874 0z" fill-rule="evenodd"></path><path stroke="#000000" stroke-width="1.0" stroke-linejoin="round" stroke-linecap="butt" d="m173.0 111.0l33.007874 0l0 28.0l-33.007874 0z" fill-rule="evenodd"></path><path fill="#d9ead3" d="m205.0 111.0l33.007874 0l0 28.0l-33.007874 0z" fill-rule="evenodd"></path><path stroke="#000000" stroke-width="1.0" stroke-linejoin="round" stroke-linecap="butt" d="m205.0 111.0l33.007874 0l0 28.0l-33.007874 0z" fill-rule="evenodd"></path><path fill="#b6d7a8" d="m237.0 111.0l33.007874 0l0 28.0l-33.007874 0z" fill-rule="evenodd"></path><path stroke="#000000" stroke-width="1.0" stroke-linejoin="round" stroke-linecap="butt" d="m237.0 111.0l33.007874 0l0 28.0l-33.007874 0z" fill-rule="evenodd"></path><path fill="#d9ead3" d="m269.0 111.0l33.007874 0l0 28.0l-33.007874 0z" fill-rule="evenodd"></path><path stroke="#000000" stroke-width="1.0" stroke-linejoin="round" stroke-linecap="butt" d="m269.0 111.0l33.007874 0l0 28.0l-33.007874 0z" fill-rule="evenodd"></path><path fill="#d9ead3" d="m301.0 111.0l33.007874 0l0 28.0l-33.007874 0z" fill-rule="evenodd"></path><path stroke="#000000" stroke-width="1.0" stroke-linejoin="round" stroke-linecap="butt" d="m301.0 111.0l33.007874 0l0 28.0l-33.007874 0z" fill-rule="evenodd"></path><path fill="#d9ead3" d="m333.0 111.0l33.007874 0l0 28.0l-33.007874 0z" fill-rule="evenodd"></path><path stroke="#000000" stroke-width="1.0" stroke-linejoin="round" stroke-linecap="butt" d="m333.0 111.0l33.007874 0l0 28.0l-33.007874 0z" fill-rule="evenodd"></path><path fill="#b6d7a8" d="m365.0 111.0l33.007874 0l0 28.0l-33.007874 0z" fill-rule="evenodd"></path><path stroke="#000000" stroke-width="1.0" stroke-linejoin="round" stroke-linecap="butt" d="m365.0 111.0l33.007874 0l0 28.0l-33.007874 0z" fill-rule="evenodd"></path><path fill="#d9ead3" d="m397.0 111.0l33.007874 0l0 28.0l-33.007874 0z" fill-rule="evenodd"></path><path stroke="#000000" stroke-width="1.0" stroke-linejoin="round" stroke-linecap="butt" d="m397.0 111.0l33.007874 0l0 28.0l-33.007874 0z" fill-rule="evenodd"></path><path fill="#d9ead3" d="m429.0 111.0l33.007874 0l0 28.0l-33.007874 0z" fill-rule="evenodd"></path><path stroke="#000000" stroke-width="1.0" stroke-linejoin="round" stroke-linecap="butt" d="m429.0 111.0l33.007874 0l0 28.0l-33.007874 0z" fill-rule="evenodd"></path><path fill="#d9ead3" d="m461.0 111.0l33.007874 0l0 28.0l-33.007874 0z" fill-rule="evenodd"></path><path stroke="#000000" stroke-width="1.0" stroke-linejoin="round" stroke-linecap="butt" d="m461.0 111.0l33.007874 0l0 28.0l-33.007874 0z" fill-rule="evenodd"></path><path fill="#b6d7a8" d="m493.0 111.0l33.007874 0l0 28.0l-33.007874 0z" fill-rule="evenodd"></path><path stroke="#000000" stroke-width="1.0" stroke-linejoin="round" stroke-linecap="butt" d="m493.0 111.0l33.007874 0l0 28.0l-33.007874 0z" fill-rule="evenodd"></path><path fill="#d9ead3" d="m525.0 111.0l33.007874 0l0 28.0l-33.007874 0z" fill-rule="evenodd"></path><path stroke="#000000" stroke-width="1.0" stroke-linejoin="round" stroke-linecap="butt" d="m525.0 111.0l33.007874 0l0 28.0l-33.007874 0z" fill-rule="evenodd"></path><path fill="#000000" fill-opacity="0.0" d="m33.0 103.50394l96.0 0l0 42.992126l-96.0 0z" fill-rule="evenodd"></path><path fill="#000000" d="m42.84375 127.39019q0 -1.4375 0.703125 -2.78125q0.703125 -1.34375 2.0 -2.046875q1.296875 -0.71875 2.90625 -0.71875q2.46875 0 4.046875 1.609375q1.578125 1.609375 1.578125 4.0625q0 2.4687424 -1.59375 4.0937424q-1.59375 1.625 -4.015625 1.625q-1.5 0 -2.859375 -0.671875q-1.359375 -0.6875 -2.0625 -1.984375q-0.703125 -1.3125 -0.703125 -3.1874924zm2.953125 0.15625q0 1.6093674 0.765625 2.4687424q0.765625 0.859375 1.890625 0.859375q1.140625 0 1.890625 -0.859375q0.765625 -0.859375 0.765625 -2.4999924q0 -1.59375 -0.765625 -2.453125q-0.75 -0.859375 -1.890625 -0.859375q-1.125 0 -1.890625 0.859375q-0.765625 0.859375 -0.765625 2.484375zm17.903076 5.4374924l0 -1.625q-0.59375 0.859375 -1.5625 1.375q-0.96875 0.5 -2.046875 0.5q-1.09375 0 -1.96875 -0.484375q-0.875 -0.484375 -1.265625 -1.359375q-0.375 -0.875 -0.375 -2.40625l0 -6.8906174l2.875 0l0 5.0q0 2.2968674 0.15625 2.8281174q0.15625 0.515625 0.578125 0.8125q0.421875 0.296875 1.0625 0.296875q0.75 0 1.328125 -0.40625q0.59375 -0.40625 0.796875 -1.0q0.21875 -0.59375 0.21875 -2.9374924l0 -4.59375l2.875 0l0 10.890617l-2.671875 0zm10.856201 -10.890617l0 2.296875l-1.96875 0l0 4.3906174q0 1.328125 0.046875 1.546875q0.0625 0.21875 0.265625 0.375q0.203125 0.140625 0.484375 0.140625q0.40625 0 1.15625 -0.28125l0.25 2.234375q-1.0 0.4375 -2.28125 0.4375q-0.765625 0 -1.390625 -0.265625q-0.625 -0.265625 -0.921875 -0.671875q-0.296875 -0.421875 -0.40625 -1.125q-0.09375 -0.5 -0.09375 -2.03125l0 -4.7499924l-1.328125 0l0 -2.296875l1.328125 0l0 -2.15625l2.890625 -1.6875l0 3.84375l1.96875 0zm2.0243073 0l2.6875 0l0 1.59375q0.53125 -0.8125 1.421875 -1.328125q0.890625 -0.515625 1.96875 -0.515625q1.90625 0 3.21875 1.5q1.328125 1.484375 1.328125 4.140625q0 2.7187424 -1.34375 4.2343674q-1.328125 1.515625 -3.21875 1.515625q-0.90625 0 -1.640625 -0.359375q-0.734375 -0.359375 -1.53125 -1.234375l0 5.484375l-2.890625 0l0 -15.031242zm2.859375 5.265625q0 1.8281174 0.71875 2.7031174q0.734375 0.875 1.78125 0.875q1.0 0 1.65625 -0.796875q0.671875 -0.8125 0.671875 -2.6406174q0 -1.71875 -0.6875 -2.546875q-0.6875 -0.828125 -1.6875 -0.828125q-1.0625 0 -1.765625 0.8125q-0.6875 0.8125 -0.6875 2.421875zm17.418701 5.6249924l0 -1.625q-0.59375 0.859375 -1.5625 1.375q-0.96875 0.5 -2.046875 0.5q-1.09375 0 -1.96875 -0.484375q-0.875 -0.484375 -1.265625 -1.359375q-0.375 -0.875 -0.375 -2.40625l0 -6.8906174l2.875 0l0 5.0q0 2.2968674 0.15625 2.8281174q0.15625 0.515625 0.578125 0.8125q0.421875 0.296875 1.0625 0.296875q0.75 0 1.328125 -0.40625q0.59375 -0.40625 0.796875 -1.0q0.21875 -0.59375 0.21875 -2.9374924l0 -4.59375l2.875 0l0 10.890617l-2.671875 0zm10.856201 -10.890617l0 2.296875l-1.96875 0l0 4.3906174q0 1.328125 0.046875 1.546875q0.0625 0.21875 0.265625 0.375q0.203125 0.140625 0.484375 0.140625q0.40625 0 1.15625 -0.28125l0.25 2.234375q-1.0 0.4375 -2.28125 0.4375q-0.765625 0 -1.390625 -0.265625q-0.625 -0.265625 -0.921875 -0.671875q-0.296875 -0.421875 -0.40625 -1.125q-0.09375 -0.5 -0.09375 -2.03125l0 -4.7499924l-1.328125 0l0 -2.296875l1.328125 0l0 -2.15625l2.890625 -1.6875l0 3.84375l1.96875 0zm2.6649323 2.875l0 -2.875l2.875 0l0 2.875l-2.875 0zm0 8.015617l0 -2.875l2.875 0l0 2.875l-2.875 0z" fill-rule="nonzero"></path><path fill="#000000" fill-opacity="0.0" d="m40.496063 143.50394l85.00787 0l0 42.992126l-85.00787 0z" fill-rule="evenodd"></path><path fill="#000000" d="m56.921707 160.62456l0 -2.671875l2.890625 0l0 2.671875l-2.890625 0zm0 12.359375l0 -10.890625l2.890625 0l0 10.890625l-2.890625 0zm15.831894 0l-2.875 0l0 -5.5625q0 -1.765625 -0.1875 -2.28125q-0.1875 -0.515625 -0.609375 -0.796875q-0.40625 -0.296875 -0.984375 -0.296875q-0.75 0 -1.34375 0.421875q-0.59375 0.40625 -0.8125 1.09375q-0.21875 0.671875 -0.21875 2.484375l0 4.9375l-2.890625 0l0 -10.890625l2.671875 0l0 1.59375q1.4375 -1.84375 3.59375 -1.84375q0.953125 0 1.734375 0.34375q0.796875 0.34375 1.203125 0.890625q0.40625 0.53125 0.5625 1.203125q0.15625 0.671875 0.15625 1.9375l0 6.765625zm3.0437012 -10.890625l2.6875 0l0 1.59375q0.53125 -0.8125 1.421875 -1.328125q0.890625 -0.515625 1.96875 -0.515625q1.90625 0 3.21875 1.5q1.328125 1.484375 1.328125 4.140625q0 2.71875 -1.34375 4.234375q-1.328125 1.515625 -3.21875 1.515625q-0.90625 0 -1.640625 -0.359375q-0.734375 -0.359375 -1.53125 -1.234375l0 5.484375l-2.890625 0l0 -15.03125zm2.859375 5.265625q0 1.828125 0.71875 2.703125q0.734375 0.875 1.78125 0.875q1.0 0 1.65625 -0.796875q0.671875 -0.8125 0.671875 -2.640625q0 -1.71875 -0.6875 -2.546875q-0.6875 -0.828125 -1.6875 -0.828125q-1.0625 0 -1.765625 0.8125q-0.6875 0.8125 -0.6875 2.421875zm17.418701 5.625l0 -1.625q-0.59375 0.859375 -1.5625 1.375q-0.96875 0.5 -2.046875 0.5q-1.09375 0 -1.96875 -0.484375q-0.875 -0.484375 -1.265625 -1.359375q-0.375 -0.875 -0.375 -2.40625l0 -6.890625l2.875 0l0 5.0q0 2.296875 0.15625 2.828125q0.15625 0.515625 0.578125 0.8125q0.421875 0.296875 1.0625 0.296875q0.75 0 1.328125 -0.40625q0.59375 -0.40625 0.796875 -1.0q0.21875 -0.59375 0.21875 -2.9375l0 -4.59375l2.875 0l0 10.890625l-2.671875 0zm10.856201 -10.890625l0 2.296875l-1.96875 0l0 4.390625q0 1.328125 0.046875 1.546875q0.0625 0.21875 0.265625 0.375q0.203125 0.140625 0.484375 0.140625q0.40625 0 1.15625 -0.28125l0.25 2.234375q-1.0 0.4375 -2.28125 0.4375q-0.765625 0 -1.390625 -0.265625q-0.625 -0.265625 -0.921875 -0.671875q-0.296875 -0.421875 -0.40625 -1.125q-0.09375 -0.5 -0.09375 -2.03125l0 -4.75l-1.328125 0l0 -2.296875l1.328125 0l0 -2.15625l2.890625 -1.6875l0 3.84375l1.96875 0zm2.6649323 2.875l0 -2.875l2.875 0l0 2.875l-2.875 0zm0 8.015625l0 -2.875l2.875 0l0 2.875l-2.875 0z" fill-rule="nonzero"></path><path fill="#cfe2f3" d="m141.0 159.0l33.007874 0l0 28.0l-33.007874 0z" fill-rule="evenodd"></path><path stroke="#000000" stroke-width="1.0" stroke-linejoin="round" stroke-linecap="butt" d="m141.0 159.0l33.007874 0l0 28.0l-33.007874 0z" fill-rule="evenodd"></path><path fill="#cfe2f3" d="m173.0 159.0l33.007874 0l0 28.0l-33.007874 0z" fill-rule="evenodd"></path><path stroke="#000000" stroke-width="1.0" stroke-linejoin="round" stroke-linecap="butt" d="m173.0 159.0l33.007874 0l0 28.0l-33.007874 0z" fill-rule="evenodd"></path><path fill="#cfe2f3" d="m205.0 159.0l33.007874 0l0 28.0l-33.007874 0z" fill-rule="evenodd"></path><path stroke="#000000" stroke-width="1.0" stroke-linejoin="round" stroke-linecap="butt" d="m205.0 159.0l33.007874 0l0 28.0l-33.007874 0z" fill-rule="evenodd"></path><path fill="#a4c2f4" d="m237.0 159.0l33.007874 0l0 28.0l-33.007874 0z" fill-rule="evenodd"></path><path stroke="#000000" stroke-width="1.0" stroke-linejoin="round" stroke-linecap="butt" d="m237.0 159.0l33.007874 0l0 28.0l-33.007874 0z" fill-rule="evenodd"></path><path fill="#cfe2f3" d="m269.0 159.0l33.007874 0l0 28.0l-33.007874 0z" fill-rule="evenodd"></path><path stroke="#000000" stroke-width="1.0" stroke-linejoin="round" stroke-linecap="butt" d="m269.0 159.0l33.007874 0l0 28.0l-33.007874 0z" fill-rule="evenodd"></path><path fill="#cfe2f3" d="m301.0 159.0l33.007874 0l0 28.0l-33.007874 0z" fill-rule="evenodd"></path><path stroke="#000000" stroke-width="1.0" stroke-linejoin="round" stroke-linecap="butt" d="m301.0 159.0l33.007874 0l0 28.0l-33.007874 0z" fill-rule="evenodd"></path><path fill="#cfe2f3" d="m333.0 159.0l33.007874 0l0 28.0l-33.007874 0z" fill-rule="evenodd"></path><path stroke="#000000" stroke-width="1.0" stroke-linejoin="round" stroke-linecap="butt" d="m333.0 159.0l33.007874 0l0 28.0l-33.007874 0z" fill-rule="evenodd"></path><path fill="#a4c2f4" d="m365.0 159.0l33.007874 0l0 28.0l-33.007874 0z" fill-rule="evenodd"></path><path stroke="#000000" stroke-width="1.0" stroke-linejoin="round" stroke-linecap="butt" d="m365.0 159.0l33.007874 0l0 28.0l-33.007874 0z" fill-rule="evenodd"></path><path fill="#cfe2f3" d="m397.0 159.0l33.007874 0l0 28.0l-33.007874 0z" fill-rule="evenodd"></path><path stroke="#000000" stroke-width="1.0" stroke-linejoin="round" stroke-linecap="butt" d="m397.0 159.0l33.007874 0l0 28.0l-33.007874 0z" fill-rule="evenodd"></path><path fill="#cfe2f3" d="m429.0 159.0l33.007874 0l0 28.0l-33.007874 0z" fill-rule="evenodd"></path><path stroke="#000000" stroke-width="1.0" stroke-linejoin="round" stroke-linecap="butt" d="m429.0 159.0l33.007874 0l0 28.0l-33.007874 0z" fill-rule="evenodd"></path><path fill="#cfe2f3" d="m461.0 159.0l33.007874 0l0 28.0l-33.007874 0z" fill-rule="evenodd"></path><path stroke="#000000" stroke-width="1.0" stroke-linejoin="round" stroke-linecap="butt" d="m461.0 159.0l33.007874 0l0 28.0l-33.007874 0z" fill-rule="evenodd"></path><path fill="#a4c2f4" d="m493.0 159.0l33.007874 0l0 28.0l-33.007874 0z" fill-rule="evenodd"></path><path stroke="#000000" stroke-width="1.0" stroke-linejoin="round" stroke-linecap="butt" d="m493.0 159.0l33.007874 0l0 28.0l-33.007874 0z" fill-rule="evenodd"></path><path fill="#cfe2f3" d="m525.0 159.0l33.007874 0l0 28.0l-33.007874 0z" fill-rule="evenodd"></path><path stroke="#000000" stroke-width="1.0" stroke-linejoin="round" stroke-linecap="butt" d="m525.0 159.0l33.007874 0l0 28.0l-33.007874 0z" fill-rule="evenodd"></path><path fill="#d9ead3" d="m589.0 111.0l33.007874 0l0 28.0l-33.007874 0z" fill-rule="evenodd"></path><path stroke="#000000" stroke-width="1.0" stroke-linejoin="round" stroke-linecap="butt" d="m589.0 111.0l33.007874 0l0 28.0l-33.007874 0z" fill-rule="evenodd"></path><path fill="#d9ead3" d="m621.0 111.0l33.007874 0l0 28.0l-33.007874 0z" fill-rule="evenodd"></path><path stroke="#000000" stroke-width="1.0" stroke-linejoin="round" stroke-linecap="butt" d="m621.0 111.0l33.007874 0l0 28.0l-33.007874 0z" fill-rule="evenodd"></path><path fill="#d9ead3" d="m733.0 111.0l33.007874 0l0 28.0l-33.007874 0z" fill-rule="evenodd"></path><path stroke="#000000" stroke-width="1.0" stroke-linejoin="round" stroke-linecap="butt" d="m733.0 111.0l33.007874 0l0 28.0l-33.007874 0z" fill-rule="evenodd"></path><path fill="#d9ead3" d="m765.0 111.0l33.007874 0l0 28.0l-33.007874 0z" fill-rule="evenodd"></path><path stroke="#000000" stroke-width="1.0" stroke-linejoin="round" stroke-linecap="butt" d="m765.0 111.0l33.007874 0l0 28.0l-33.007874 0z" fill-rule="evenodd"></path><path fill="#d9ead3" d="m797.0 111.0l33.007874 0l0 28.0l-33.007874 0z" fill-rule="evenodd"></path><path stroke="#000000" stroke-width="1.0" stroke-linejoin="round" stroke-linecap="butt" d="m797.0 111.0l33.007874 0l0 28.0l-33.007874 0z" fill-rule="evenodd"></path><path fill="#d9ead3" d="m829.0 111.0l33.007874 0l0 28.0l-33.007874 0z" fill-rule="evenodd"></path><path stroke="#000000" stroke-width="1.0" stroke-linejoin="round" stroke-linecap="butt" d="m829.0 111.0l33.007874 0l0 28.0l-33.007874 0z" fill-rule="evenodd"></path><path fill="#d9ead3" d="m861.0 111.0l33.007874 0l0 28.0l-33.007874 0z" fill-rule="evenodd"></path><path stroke="#000000" stroke-width="1.0" stroke-linejoin="round" stroke-linecap="butt" d="m861.0 111.0l33.007874 0l0 28.0l-33.007874 0z" fill-rule="evenodd"></path><path fill="#d9ead3" d="m893.0 111.0l33.007874 0l0 28.0l-33.007874 0z" fill-rule="evenodd"></path><path stroke="#000000" stroke-width="1.0" stroke-linejoin="round" stroke-linecap="butt" d="m893.0 111.0l33.007874 0l0 28.0l-33.007874 0z" fill-rule="evenodd"></path><path fill="#d9ead3" d="m925.0 111.0l33.007874 0l0 28.0l-33.007874 0z" fill-rule="evenodd"></path><path stroke="#000000" stroke-width="1.0" stroke-linejoin="round" stroke-linecap="butt" d="m925.0 111.0l33.007874 0l0 28.0l-33.007874 0z" fill-rule="evenodd"></path><path fill="#d9ead3" d="m957.0 111.0l33.007874 0l0 28.0l-33.007874 0z" fill-rule="evenodd"></path><path stroke="#000000" stroke-width="1.0" stroke-linejoin="round" stroke-linecap="butt" d="m957.0 111.0l33.007874 0l0 28.0l-33.007874 0z" fill-rule="evenodd"></path><path fill="#cfe2f3" d="m589.0 159.0l33.007874 0l0 28.0l-33.007874 0z" fill-rule="evenodd"></path><path stroke="#000000" stroke-width="1.0" stroke-linejoin="round" stroke-linecap="butt" d="m589.0 159.0l33.007874 0l0 28.0l-33.007874 0z" fill-rule="evenodd"></path><path fill="#cfe2f3" d="m621.0 159.0l33.007874 0l0 28.0l-33.007874 0z" fill-rule="evenodd"></path><path stroke="#000000" stroke-width="1.0" stroke-linejoin="round" stroke-linecap="butt" d="m621.0 159.0l33.007874 0l0 28.0l-33.007874 0z" fill-rule="evenodd"></path><path fill="#cfe2f3" d="m733.0 159.0l33.007874 0l0 28.0l-33.007874 0z" fill-rule="evenodd"></path><path stroke="#000000" stroke-width="1.0" stroke-linejoin="round" stroke-linecap="butt" d="m733.0 159.0l33.007874 0l0 28.0l-33.007874 0z" fill-rule="evenodd"></path><path fill="#cfe2f3" d="m765.0 159.0l33.007874 0l0 28.0l-33.007874 0z" fill-rule="evenodd"></path><path stroke="#000000" stroke-width="1.0" stroke-linejoin="round" stroke-linecap="butt" d="m765.0 159.0l33.007874 0l0 28.0l-33.007874 0z" fill-rule="evenodd"></path><path fill="#cfe2f3" d="m797.0 159.0l33.007874 0l0 28.0l-33.007874 0z" fill-rule="evenodd"></path><path stroke="#000000" stroke-width="1.0" stroke-linejoin="round" stroke-linecap="butt" d="m797.0 159.0l33.007874 0l0 28.0l-33.007874 0z" fill-rule="evenodd"></path><path fill="#cfe2f3" d="m829.0 159.0l33.007874 0l0 28.0l-33.007874 0z" fill-rule="evenodd"></path><path stroke="#000000" stroke-width="1.0" stroke-linejoin="round" stroke-linecap="butt" d="m829.0 159.0l33.007874 0l0 28.0l-33.007874 0z" fill-rule="evenodd"></path><path fill="#cfe2f3" d="m861.0 159.0l33.007874 0l0 28.0l-33.007874 0z" fill-rule="evenodd"></path><path stroke="#000000" stroke-width="1.0" stroke-linejoin="round" stroke-linecap="butt" d="m861.0 159.0l33.007874 0l0 28.0l-33.007874 0z" fill-rule="evenodd"></path><path fill="#cfe2f3" d="m893.0 159.0l33.007874 0l0 28.0l-33.007874 0z" fill-rule="evenodd"></path><path stroke="#000000" stroke-width="1.0" stroke-linejoin="round" stroke-linecap="butt" d="m893.0 159.0l33.007874 0l0 28.0l-33.007874 0z" fill-rule="evenodd"></path><path fill="#cfe2f3" d="m925.0 159.0l33.007874 0l0 28.0l-33.007874 0z" fill-rule="evenodd"></path><path stroke="#000000" stroke-width="1.0" stroke-linejoin="round" stroke-linecap="butt" d="m925.0 159.0l33.007874 0l0 28.0l-33.007874 0z" fill-rule="evenodd"></path><path fill="#cfe2f3" d="m957.0 159.0l33.007874 0l0 28.0l-33.007874 0z" fill-rule="evenodd"></path><path stroke="#000000" stroke-width="1.0" stroke-linejoin="round" stroke-linecap="butt" d="m957.0 159.0l33.007874 0l0 28.0l-33.007874 0z" fill-rule="evenodd"></path><path fill="#000000" fill-opacity="0.0" d="m662.13385 98.50394l126.74017 0l0 66.99213l-126.74017 0z" fill-rule="evenodd"></path><path fill="#000000" d="m675.4932 153.58394l0 -4.8125l4.8125 0l0 4.8125l-4.8125 0zm13.3359375 0l0 -4.8125l4.8125 0l0 4.8125l-4.8125 0zm13.3359375 0l0 -4.8125l4.8125 0l0 4.8125l-4.8125 0z" fill-rule="nonzero"></path><path fill="#d9ead3" d="m557.0 111.0l33.007874 0l0 28.0l-33.007874 0z" fill-rule="evenodd"></path><path stroke="#000000" stroke-width="1.0" stroke-linejoin="round" stroke-linecap="butt" d="m557.0 111.0l33.007874 0l0 28.0l-33.007874 0z" fill-rule="evenodd"></path><path fill="#cfe2f3" d="m557.0 159.0l33.007874 0l0 28.0l-33.007874 0z" fill-rule="evenodd"></path><path stroke="#000000" stroke-width="1.0" stroke-linejoin="round" stroke-linecap="butt" d="m557.0 159.0l33.007874 0l0 28.0l-33.007874 0z" fill-rule="evenodd"></path><path fill="#000000" fill-opacity="0.0" d="m271.0 94.0l0 0" fill-rule="evenodd"></path><path stroke="#000000" stroke-width="1.0" stroke-linejoin="round" stroke-linecap="butt" d="m271.0 94.0l0 0" fill-rule="evenodd"></path><path fill="#000000" fill-opacity="0.0" d="m260.99213 195.50394c0 6.349106 -4.702667 11.496063 -10.503723 11.496063l-32.740585 0c-5.8010406 0 -10.503723 5.1469574 -10.503723 11.496063l0 0c0 -6.349106 -4.7026825 -11.496063 -10.503723 -11.496063l-32.740585 0l0 0c-5.8010406 0 -10.503723 -5.1469574 -10.503723 -11.496063z" fill-rule="evenodd"></path><path fill="#000000" fill-opacity="0.0" d="m260.99213 195.50394c0 6.349106 -4.702667 11.496063 -10.503723 11.496063l-32.740585 0c-5.8010406 0 -10.503723 5.1469574 -10.503723 11.496063l0 0c0 -6.349106 -4.7026825 -11.496063 -10.503723 -11.496063l-32.740585 0l0 0c-5.8010406 0 -10.503723 -5.1469574 -10.503723 -11.496063" fill-rule="evenodd"></path><path stroke="#000000" stroke-width="1.0" stroke-linejoin="round" stroke-linecap="butt" d="m260.99213 195.50394c0 6.349106 -4.702667 11.496063 -10.503723 11.496063l-32.740585 0c-5.8010406 0 -10.503723 5.1469574 -10.503723 11.496063l0 0c0 -6.349106 -4.7026825 -11.496063 -10.503723 -11.496063l-32.740585 0l0 0c-5.8010406 0 -10.503723 -5.1469574 -10.503723 -11.496063" fill-rule="evenodd"></path><path fill="#000000" fill-opacity="0.0" d="m388.99213 195.50394c0 6.349106 -4.702667 11.496063 -10.503723 11.496063l-32.7406 0c-5.8010254 0 -10.503723 5.1469574 -10.503723 11.496063l0 0c0 -6.349106 -4.702667 -11.496063 -10.503723 -11.496063l-32.74057 0l0 0c-5.801056 0 -10.503723 -5.1469574 -10.503723 -11.496063z" fill-rule="evenodd"></path><path fill="#000000" fill-opacity="0.0" d="m388.99213 195.50394c0 6.349106 -4.702667 11.496063 -10.503723 11.496063l-32.7406 0c-5.8010254 0 -10.503723 5.1469574 -10.503723 11.496063l0 0c0 -6.349106 -4.702667 -11.496063 -10.503723 -11.496063l-32.74057 0l0 0c-5.801056 0 -10.503723 -5.1469574 -10.503723 -11.496063" fill-rule="evenodd"></path><path stroke="#000000" stroke-width="1.0" stroke-linejoin="round" stroke-linecap="butt" d="m388.99213 195.50394c0 6.349106 -4.702667 11.496063 -10.503723 11.496063l-32.7406 0c-5.8010254 0 -10.503723 5.1469574 -10.503723 11.496063l0 0c0 -6.349106 -4.702667 -11.496063 -10.503723 -11.496063l-32.74057 0l0 0c-5.801056 0 -10.503723 -5.1469574 -10.503723 -11.496063" fill-rule="evenodd"></path><path fill="#000000" fill-opacity="0.0" d="m516.9921 195.50394c0 6.349106 -4.7026978 11.496063 -10.503723 11.496063l-32.7406 0c-5.8010254 0 -10.503723 5.1469574 -10.503723 11.496063l0 0c0 -6.349106 -4.702667 -11.496063 -10.503723 -11.496063l-32.74057 0l0 0c-5.801056 0 -10.503723 -5.1469574 -10.503723 -11.496063z" fill-rule="evenodd"></path><path fill="#000000" fill-opacity="0.0" d="m516.9921 195.50394c0 6.349106 -4.7026978 11.496063 -10.503723 11.496063l-32.7406 0c-5.8010254 0 -10.503723 5.1469574 -10.503723 11.496063l0 0c0 -6.349106 -4.702667 -11.496063 -10.503723 -11.496063l-32.74057 0l0 0c-5.801056 0 -10.503723 -5.1469574 -10.503723 -11.496063" fill-rule="evenodd"></path><path stroke="#000000" stroke-width="1.0" stroke-linejoin="round" stroke-linecap="butt" d="m516.9921 195.50394c0 6.349106 -4.7026978 11.496063 -10.503723 11.496063l-32.7406 0c-5.8010254 0 -10.503723 5.1469574 -10.503723 11.496063l0 0c0 -6.349106 -4.702667 -11.496063 -10.503723 -11.496063l-32.74057 0l0 0c-5.801056 0 -10.503723 -5.1469574 -10.503723 -11.496063" fill-rule="evenodd"></path><path fill="#d9ead3" d="m196.49606 380.0l33.007874 0l0 28.0l-33.007874 0z" fill-rule="evenodd"></path><path stroke="#000000" stroke-width="1.0" stroke-linejoin="round" stroke-linecap="butt" d="m196.49606 380.0l33.007874 0l0 28.0l-33.007874 0z" fill-rule="evenodd"></path><path fill="#d9ead3" d="m228.49606 380.0l33.007874 0l0 28.0l-33.007874 0z" fill-rule="evenodd"></path><path stroke="#000000" stroke-width="1.0" stroke-linejoin="round" stroke-linecap="butt" d="m228.49606 380.0l33.007874 0l0 28.0l-33.007874 0z" fill-rule="evenodd"></path><path fill="#d9ead3" d="m260.49606 380.0l33.007874 0l0 28.0l-33.007874 0z" fill-rule="evenodd"></path><path stroke="#000000" stroke-width="1.0" stroke-linejoin="round" stroke-linecap="butt" d="m260.49606 380.0l33.007874 0l0 28.0l-33.007874 0z" fill-rule="evenodd"></path><path fill="#b6d7a8" d="m292.49606 380.0l33.007874 0l0 28.0l-33.007874 0z" fill-rule="evenodd"></path><path stroke="#000000" stroke-width="1.0" stroke-linejoin="round" stroke-linecap="butt" d="m292.49606 380.0l33.007874 0l0 28.0l-33.007874 0z" fill-rule="evenodd"></path><path fill="#d9ead3" d="m196.49606 337.5l33.007874 0l0 28.0l-33.007874 0z" fill-rule="evenodd"></path><path stroke="#000000" stroke-width="1.0" stroke-linejoin="round" stroke-linecap="butt" d="m196.49606 337.5l33.007874 0l0 28.0l-33.007874 0z" fill-rule="evenodd"></path><path fill="#d9ead3" d="m228.49606 337.5l33.007874 0l0 28.0l-33.007874 0z" fill-rule="evenodd"></path><path stroke="#000000" stroke-width="1.0" stroke-linejoin="round" stroke-linecap="butt" d="m228.49606 337.5l33.007874 0l0 28.0l-33.007874 0z" fill-rule="evenodd"></path><path fill="#d9ead3" d="m260.49606 337.5l33.007874 0l0 28.0l-33.007874 0z" fill-rule="evenodd"></path><path stroke="#000000" stroke-width="1.0" stroke-linejoin="round" stroke-linecap="butt" d="m260.49606 337.5l33.007874 0l0 28.0l-33.007874 0z" fill-rule="evenodd"></path><path fill="#b6d7a8" d="m292.49606 337.5l33.007874 0l0 28.0l-33.007874 0z" fill-rule="evenodd"></path><path stroke="#000000" stroke-width="1.0" stroke-linejoin="round" stroke-linecap="butt" d="m292.49606 337.5l33.007874 0l0 28.0l-33.007874 0z" fill-rule="evenodd"></path><path fill="#d9ead3" d="m196.49606 293.5l33.007874 0l0 28.0l-33.007874 0z" fill-rule="evenodd"></path><path stroke="#000000" stroke-width="1.0" stroke-linejoin="round" stroke-linecap="butt" d="m196.49606 293.5l33.007874 0l0 28.0l-33.007874 0z" fill-rule="evenodd"></path><path fill="#d9ead3" d="m228.49606 293.5l33.007874 0l0 28.0l-33.007874 0z" fill-rule="evenodd"></path><path stroke="#000000" stroke-width="1.0" stroke-linejoin="round" stroke-linecap="butt" d="m228.49606 293.5l33.007874 0l0 28.0l-33.007874 0z" fill-rule="evenodd"></path><path fill="#d9ead3" d="m260.49606 293.5l33.007874 0l0 28.0l-33.007874 0z" fill-rule="evenodd"></path><path stroke="#000000" stroke-width="1.0" stroke-linejoin="round" stroke-linecap="butt" d="m260.49606 293.5l33.007874 0l0 28.0l-33.007874 0z" fill-rule="evenodd"></path><path fill="#b6d7a8" d="m292.49606 293.5l33.007874 0l0 28.0l-33.007874 0z" fill-rule="evenodd"></path><path stroke="#000000" stroke-width="1.0" stroke-linejoin="round" stroke-linecap="butt" d="m292.49606 293.5l33.007874 0l0 28.0l-33.007874 0z" fill-rule="evenodd"></path><path fill="#000000" fill-opacity="0.0" d="m42.496063 330.00525l96.0 0l0 42.992126l-96.0 0z" fill-rule="evenodd"></path><path fill="#000000" d="m52.339813 353.8915q0 -1.4375 0.703125 -2.78125q0.703125 -1.34375 2.0 -2.046875q1.296875 -0.71875 2.90625 -0.71875q2.46875 0 4.046875 1.609375q1.578125 1.609375 1.578125 4.0625q0 2.46875 -1.59375 4.09375q-1.59375 1.625 -4.015625 1.625q-1.5 0 -2.859375 -0.671875q-1.359375 -0.6875 -2.0625 -1.984375q-0.703125 -1.3125 -0.703125 -3.1875zm2.953125 0.15625q0 1.609375 0.765625 2.46875q0.765625 0.859375 1.890625 0.859375q1.140625 0 1.890625 -0.859375q0.765625 -0.859375 0.765625 -2.5q0 -1.59375 -0.765625 -2.453125q-0.75 -0.859375 -1.890625 -0.859375q-1.125 0 -1.890625 0.859375q-0.765625 0.859375 -0.765625 2.484375zm17.903076 5.4375l0 -1.625q-0.59375 0.859375 -1.5625 1.375q-0.96875 0.5 -2.046875 0.5q-1.09375 0 -1.96875 -0.484375q-0.875 -0.484375 -1.265625 -1.359375q-0.375 -0.875 -0.375 -2.40625l0 -6.890625l2.875 0l0 5.0q0 2.296875 0.15625 2.828125q0.15625 0.515625 0.578125 0.8125q0.421875 0.296875 1.0625 0.296875q0.75 0 1.328125 -0.40625q0.59375 -0.40625 0.796875 -1.0q0.21875 -0.59375 0.21875 -2.9375l0 -4.59375l2.875 0l0 10.890625l-2.671875 0zm10.856201 -10.890625l0 2.296875l-1.96875 0l0 4.390625q0 1.328125 0.046875 1.546875q0.0625 0.21875 0.265625 0.375q0.203125 0.140625 0.484375 0.140625q0.40625 0 1.15625 -0.28125l0.25 2.234375q-1.0 0.4375 -2.28125 0.4375q-0.765625 0 -1.390625 -0.265625q-0.625 -0.265625 -0.921875 -0.671875q-0.296875 -0.421875 -0.40625 -1.125q-0.09375 -0.5 -0.09375 -2.03125l0 -4.75l-1.328125 0l0 -2.296875l1.328125 0l0 -2.15625l2.890625 -1.6875l0 3.84375l1.96875 0zm2.0243073 0l2.6875 0l0 1.59375q0.53125 -0.8125 1.421875 -1.328125q0.890625 -0.515625 1.96875 -0.515625q1.90625 0 3.21875 1.5q1.328125 1.484375 1.328125 4.140625q0 2.71875 -1.34375 4.234375q-1.328125 1.515625 -3.21875 1.515625q-0.90625 0 -1.640625 -0.359375q-0.734375 -0.359375 -1.53125 -1.234375l0 5.484375l-2.890625 0l0 -15.03125zm2.859375 5.265625q0 1.828125 0.71875 2.703125q0.734375 0.875 1.78125 0.875q1.0 0 1.65625 -0.796875q0.671875 -0.8125 0.671875 -2.640625q0 -1.71875 -0.6875 -2.546875q-0.6875 -0.828125 -1.6875 -0.828125q-1.0625 0 -1.765625 0.8125q-0.6875 0.8125 -0.6875 2.421875zm17.418701 5.625l0 -1.625q-0.59375 0.859375 -1.5625 1.375q-0.96875 0.5 -2.046875 0.5q-1.09375 0 -1.96875 -0.484375q-0.875 -0.484375 -1.265625 -1.359375q-0.375 -0.875 -0.375 -2.40625l0 -6.890625l2.875 0l0 5.0q0 2.296875 0.15625 2.828125q0.15625 0.515625 0.578125 0.8125q0.421875 0.296875 1.0625 0.296875q0.75 0 1.328125 -0.40625q0.59375 -0.40625 0.796875 -1.0q0.21875 -0.59375 0.21875 -2.9375l0 -4.59375l2.875 0l0 10.890625l-2.671875 0zm10.856201 -10.890625l0 2.296875l-1.96875 0l0 4.390625q0 1.328125 0.046875 1.546875q0.0625 0.21875 0.265625 0.375q0.203125 0.140625 0.484375 0.140625q0.40625 0 1.15625 -0.28125l0.25 2.234375q-1.0 0.4375 -2.28125 0.4375q-0.765625 0 -1.390625 -0.265625q-0.625 -0.265625 -0.921875 -0.671875q-0.296875 -0.421875 -0.40625 -1.125q-0.09375 -0.5 -0.09375 -2.03125l0 -4.75l-1.328125 0l0 -2.296875l1.328125 0l0 -2.15625l2.890625 -1.6875l0 3.84375l1.96875 0zm2.6649323 2.875l0 -2.875l2.875 0l0 2.875l-2.875 0zm0 8.015625l0 -2.875l2.875 0l0 2.875l-2.875 0z" fill-rule="nonzero"></path><path fill="#000000" fill-opacity="0.0" d="m47.992126 484.50394l85.00787 0l0 42.992096l-85.00787 0z" fill-rule="evenodd"></path><path fill="#000000" d="m64.41777 501.62457l0 -2.671875l2.890625 0l0 2.671875l-2.890625 0zm0 12.359375l0 -10.890625l2.890625 0l0 10.890625l-2.890625 0zm15.831894 0l-2.875 0l0 -5.5625q0 -1.765625 -0.1875 -2.28125q-0.1875 -0.515625 -0.609375 -0.796875q-0.40625 -0.296875 -0.984375 -0.296875q-0.75 0 -1.34375 0.421875q-0.59375 0.40625 -0.8125 1.09375q-0.21875 0.671875 -0.21875 2.484375l0 4.9375l-2.890625 0l0 -10.890625l2.671875 0l0 1.59375q1.4375 -1.84375 3.59375 -1.84375q0.953125 0 1.734375 0.34375q0.796875 0.34375 1.203125 0.890625q0.40625 0.53125 0.5625 1.203125q0.15625 0.671875 0.15625 1.9375l0 6.765625zm3.0437012 -10.890625l2.6875 0l0 1.59375q0.53125 -0.8125 1.421875 -1.328125q0.890625 -0.515625 1.96875 -0.515625q1.90625 0 3.21875 1.5q1.328125 1.484375 1.328125 4.140625q0 2.71875 -1.34375 4.234375q-1.328125 1.515625 -3.21875 1.515625q-0.90625 0 -1.640625 -0.359375q-0.734375 -0.359375 -1.53125 -1.234375l0 5.484375l-2.890625 0l0 -15.03125zm2.859375 5.265625q0 1.828125 0.71875 2.703125q0.734375 0.875 1.78125 0.875q1.0 0 1.65625 -0.796875q0.671875 -0.8125 0.671875 -2.640625q0 -1.71875 -0.6875 -2.546875q-0.6875 -0.828125 -1.6875 -0.828125q-1.0625 0 -1.765625 0.8125q-0.6875 0.8125 -0.6875 2.421875zm17.418701 5.625l0 -1.625q-0.59375 0.859375 -1.5625 1.375q-0.96875 0.5 -2.046875 0.5q-1.09375 0 -1.96875 -0.484375q-0.875 -0.484375 -1.265625 -1.359375q-0.375 -0.875 -0.375 -2.40625l0 -6.890625l2.875 0l0 5.0q0 2.296875 0.15625 2.828125q0.15625 0.515625 0.578125 0.8125q0.421875 0.296875 1.0625 0.296875q0.75 0 1.328125 -0.40625q0.59375 -0.40625 0.796875 -1.0q0.21875 -0.59375 0.21875 -2.9375l0 -4.59375l2.875 0l0 10.890625l-2.671875 0zm10.856201 -10.890625l0 2.296875l-1.96875 0l0 4.390625q0 1.328125 0.046875 1.546875q0.0625 0.21875 0.265625 0.375q0.203125 0.140625 0.484375 0.140625q0.40625 0 1.15625 -0.28125l0.25 2.234375q-1.0 0.4375 -2.28125 0.4375q-0.765625 0 -1.390625 -0.265625q-0.625 -0.265625 -0.921875 -0.671875q-0.296875 -0.421875 -0.40625 -1.125q-0.09375 -0.5 -0.09375 -2.03125l0 -4.75l-1.328125 0l0 -2.296875l1.328125 0l0 -2.15625l2.890625 -1.6875l0 3.84375l1.96875 0zm2.6649323 2.875l0 -2.875l2.875 0l0 2.875l-2.875 0zm0 8.015625l0 -2.875l2.875 0l0 2.875l-2.875 0z" fill-rule="nonzero"></path><path fill="#cfe2f3" d="m196.49606 452.0l33.007874 0l0 28.0l-33.007874 0z" fill-rule="evenodd"></path><path stroke="#000000" stroke-width="1.0" stroke-linejoin="round" stroke-linecap="butt" d="m196.49606 452.0l33.007874 0l0 28.0l-33.007874 0z" fill-rule="evenodd"></path><path fill="#cfe2f3" d="m228.49606 452.0l33.007874 0l0 28.0l-33.007874 0z" fill-rule="evenodd"></path><path stroke="#000000" stroke-width="1.0" stroke-linejoin="round" stroke-linecap="butt" d="m228.49606 452.0l33.007874 0l0 28.0l-33.007874 0z" fill-rule="evenodd"></path><path fill="#cfe2f3" d="m260.49606 452.0l33.007874 0l0 28.0l-33.007874 0z" fill-rule="evenodd"></path><path stroke="#000000" stroke-width="1.0" stroke-linejoin="round" stroke-linecap="butt" d="m260.49606 452.0l33.007874 0l0 28.0l-33.007874 0z" fill-rule="evenodd"></path><path fill="#a4c2f4" d="m292.49606 452.0l33.007874 0l0 28.0l-33.007874 0z" fill-rule="evenodd"></path><path stroke="#000000" stroke-width="1.0" stroke-linejoin="round" stroke-linecap="butt" d="m292.49606 452.0l33.007874 0l0 28.0l-33.007874 0z" fill-rule="evenodd"></path><path fill="#cfe2f3" d="m196.49606 492.0l33.007874 0l0 28.0l-33.007874 0z" fill-rule="evenodd"></path><path stroke="#000000" stroke-width="1.0" stroke-linejoin="round" stroke-linecap="butt" d="m196.49606 492.0l33.007874 0l0 28.0l-33.007874 0z" fill-rule="evenodd"></path><path fill="#cfe2f3" d="m228.49606 492.0l33.007874 0l0 28.0l-33.007874 0z" fill-rule="evenodd"></path><path stroke="#000000" stroke-width="1.0" stroke-linejoin="round" stroke-linecap="butt" d="m228.49606 492.0l33.007874 0l0 28.0l-33.007874 0z" fill-rule="evenodd"></path><path fill="#cfe2f3" d="m260.49606 492.0l33.007874 0l0 28.0l-33.007874 0z" fill-rule="evenodd"></path><path stroke="#000000" stroke-width="1.0" stroke-linejoin="round" stroke-linecap="butt" d="m260.49606 492.0l33.007874 0l0 28.0l-33.007874 0z" fill-rule="evenodd"></path><path fill="#a4c2f4" d="m292.49606 492.0l33.007874 0l0 28.0l-33.007874 0z" fill-rule="evenodd"></path><path stroke="#000000" stroke-width="1.0" stroke-linejoin="round" stroke-linecap="butt" d="m292.49606 492.0l33.007874 0l0 28.0l-33.007874 0z" fill-rule="evenodd"></path><path fill="#cfe2f3" d="m196.49606 532.0l33.007874 0l0 28.0l-33.007874 0z" fill-rule="evenodd"></path><path stroke="#000000" stroke-width="1.0" stroke-linejoin="round" stroke-linecap="butt" d="m196.49606 532.0l33.007874 0l0 28.0l-33.007874 0z" fill-rule="evenodd"></path><path fill="#cfe2f3" d="m228.49606 532.0l33.007874 0l0 28.0l-33.007874 0z" fill-rule="evenodd"></path><path stroke="#000000" stroke-width="1.0" stroke-linejoin="round" stroke-linecap="butt" d="m228.49606 532.0l33.007874 0l0 28.0l-33.007874 0z" fill-rule="evenodd"></path><path fill="#cfe2f3" d="m260.49606 532.0l33.007874 0l0 28.0l-33.007874 0z" fill-rule="evenodd"></path><path stroke="#000000" stroke-width="1.0" stroke-linejoin="round" stroke-linecap="butt" d="m260.49606 532.0l33.007874 0l0 28.0l-33.007874 0z" fill-rule="evenodd"></path><path fill="#a4c2f4" d="m292.49606 532.0l33.007874 0l0 28.0l-33.007874 0z" fill-rule="evenodd"></path><path stroke="#000000" stroke-width="1.0" stroke-linejoin="round" stroke-linecap="butt" d="m292.49606 532.0l33.007874 0l0 28.0l-33.007874 0z" fill-rule="evenodd"></path><path fill="#000000" fill-opacity="0.0" d="m326.49606 363.0l0 0" fill-rule="evenodd"></path><path stroke="#000000" stroke-width="1.0" stroke-linejoin="round" stroke-linecap="butt" d="m326.49606 363.0l0 0" fill-rule="evenodd"></path><path fill="#000000" fill-opacity="0.0" d="m184.49606 213.99475l57.007874 0l0 37.007874l-57.007874 0z" fill-rule="evenodd"></path><path fill="#000000" d="m200.57419 240.91475l-1.671875 0l0 -10.640625q-0.59375 0.578125 -1.578125 1.15625q-0.984375 0.5625 -1.765625 0.859375l0 -1.625q1.40625 -0.65625 2.453125 -1.59375q1.046875 -0.9375 1.484375 -1.8125l1.078125 0l0 13.65625zm3.2975922 0.234375l3.9375 -14.0625l1.34375 0l-3.9375 14.0625l-1.34375 0zm5.980179 -3.828125l1.671875 -0.21875q0.28125 1.421875 0.96875 2.046875q0.703125 0.625 1.6875 0.625q1.1875 0 2.0 -0.8125q0.8125 -0.828125 0.8125 -2.03125q0 -1.140625 -0.765625 -1.890625q-0.75 -0.75 -1.90625 -0.75q-0.46875 0 -1.171875 0.1875l0.1875 -1.46875q0.15625 0.015625 0.265625 0.015625q1.0625 0 1.90625 -0.546875q0.859375 -0.5625 0.859375 -1.71875q0 -0.921875 -0.625 -1.515625q-0.609375 -0.609375 -1.59375 -0.609375q-0.96875 0 -1.625 0.609375q-0.640625 0.609375 -0.828125 1.84375l-1.671875 -0.296875q0.296875 -1.6875 1.375 -2.609375q1.09375 -0.921875 2.71875 -0.921875q1.109375 0 2.046875 0.484375q0.9375 0.46875 1.421875 1.296875q0.5 0.828125 0.5 1.75q0 0.890625 -0.46875 1.609375q-0.46875 0.71875 -1.40625 1.15625q1.21875 0.265625 1.875 1.15625q0.671875 0.875 0.671875 2.1875q0 1.78125 -1.296875 3.015625q-1.296875 1.234375 -3.28125 1.234375q-1.796875 0 -2.984375 -1.0625q-1.171875 -1.0625 -1.34375 -2.765625z" fill-rule="nonzero"></path><path fill="#000000" fill-opacity="0.0" d="m314.49606 213.99475l57.007874 0l0 37.007874l-57.007874 0z" fill-rule="evenodd"></path><path fill="#000000" d="m333.05856 239.30537l0 1.609375l-8.984375 0q-0.015625 -0.609375 0.1875 -1.15625q0.34375 -0.921875 1.09375 -1.8125q0.765625 -0.890625 2.1875 -2.0625q2.21875 -1.8125 3.0 -2.875q0.78125 -1.0625 0.78125 -2.015625q0 -0.984375 -0.71875 -1.671875q-0.703125 -0.6875 -1.84375 -0.6875q-1.203125 0 -1.9375 0.734375q-0.71875 0.71875 -0.71875 2.0l-1.71875 -0.171875q0.171875 -1.921875 1.328125 -2.921875q1.15625 -1.015625 3.09375 -1.015625q1.953125 0 3.09375 1.09375q1.140625 1.078125 1.140625 2.6875q0 0.8125 -0.34375 1.609375q-0.328125 0.78125 -1.109375 1.65625q-0.765625 0.859375 -2.5625 2.390625q-1.5 1.265625 -1.9375 1.71875q-0.421875 0.4375 -0.703125 0.890625l6.671875 0zm0.8132019 1.84375l3.9375 -14.0625l1.34375 0l-3.9375 14.0625l-1.34375 0zm5.980194 -3.828125l1.671875 -0.21875q0.28125 1.421875 0.96875 2.046875q0.703125 0.625 1.6875 0.625q1.1875 0 2.0 -0.8125q0.8125 -0.828125 0.8125 -2.03125q0 -1.140625 -0.765625 -1.890625q-0.75 -0.75 -1.90625 -0.75q-0.46875 0 -1.171875 0.1875l0.1875 -1.46875q0.15625 0.015625 0.265625 0.015625q1.0625 0 1.90625 -0.546875q0.859375 -0.5625 0.859375 -1.71875q0 -0.921875 -0.625 -1.515625q-0.609375 -0.609375 -1.59375 -0.609375q-0.96875 0 -1.625 0.609375q-0.640625 0.609375 -0.828125 1.84375l-1.671875 -0.296875q0.296875 -1.6875 1.375 -2.609375q1.09375 -0.921875 2.71875 -0.921875q1.109375 0 2.046875 0.484375q0.9375 0.46875 1.421875 1.296875q0.5 0.828125 0.5 1.75q0 0.890625 -0.46875 1.609375q-0.46875 0.71875 -1.40625 1.15625q1.21875 0.265625 1.875 1.15625q0.671875 0.875 0.671875 2.1875q0 1.78125 -1.296875 3.015625q-1.296875 1.234375 -3.28125 1.234375q-1.796875 0 -2.984375 -1.0625q-1.171875 -1.0625 -1.34375 -2.765625z" fill-rule="nonzero"></path><path fill="#000000" fill-opacity="0.0" d="m442.49606 213.99475l57.007874 0l0 37.007874l-57.007874 0z" fill-rule="evenodd"></path><path fill="#000000" d="m452.29294 237.321l1.671875 -0.21875q0.28125 1.421875 0.96875 2.046875q0.703125 0.625 1.6875 0.625q1.1875 0 2.0 -0.8125q0.8125 -0.828125 0.8125 -2.03125q0 -1.140625 -0.765625 -1.890625q-0.75 -0.75 -1.90625 -0.75q-0.46875 0 -1.171875 0.1875l0.1875 -1.46875q0.15625 0.015625 0.265625 0.015625q1.0625 0 1.90625 -0.546875q0.859375 -0.5625 0.859375 -1.71875q0 -0.921875 -0.625 -1.515625q-0.609375 -0.609375 -1.59375 -0.609375q-0.96875 0 -1.625 0.609375q-0.640625 0.609375 -0.828125 1.84375l-1.671875 -0.296875q0.296875 -1.6875 1.375 -2.609375q1.09375 -0.921875 2.71875 -0.921875q1.109375 0 2.046875 0.484375q0.9375 0.46875 1.421875 1.296875q0.5 0.828125 0.5 1.75q0 0.890625 -0.46875 1.609375q-0.46875 0.71875 -1.40625 1.15625q1.21875 0.265625 1.875 1.15625q0.671875 0.875 0.671875 2.1875q0 1.78125 -1.296875 3.015625q-1.296875 1.234375 -3.28125 1.234375q-1.796875 0 -2.984375 -1.0625q-1.171875 -1.0625 -1.34375 -2.765625zm9.578827 3.828125l3.9375 -14.0625l1.34375 0l-3.9375 14.0625l-1.34375 0zm5.980194 -3.828125l1.671875 -0.21875q0.28125 1.421875 0.96875 2.046875q0.703125 0.625 1.6875 0.625q1.1875 0 2.0 -0.8125q0.8125 -0.828125 0.8125 -2.03125q0 -1.140625 -0.765625 -1.890625q-0.75 -0.75 -1.90625 -0.75q-0.46875 0 -1.171875 0.1875l0.1875 -1.46875q0.15625 0.015625 0.265625 0.015625q1.0625 0 1.90625 -0.546875q0.859375 -0.5625 0.859375 -1.71875q0 -0.921875 -0.625 -1.515625q-0.609375 -0.609375 -1.59375 -0.609375q-0.96875 0 -1.625 0.609375q-0.640625 0.609375 -0.828125 1.84375l-1.671875 -0.296875q0.296875 -1.6875 1.375 -2.609375q1.09375 -0.921875 2.71875 -0.921875q1.109375 0 2.046875 0.484375q0.9375 0.46875 1.421875 1.296875q0.5 0.828125 0.5 1.75q0 0.890625 -0.46875 1.609375q-0.46875 0.71875 -1.40625 1.15625q1.21875 0.265625 1.875 1.15625q0.671875 0.875 0.671875 2.1875q0 1.78125 -1.296875 3.015625q-1.296875 1.234375 -3.28125 1.234375q-1.796875 0 -2.984375 -1.0625q-1.171875 -1.0625 -1.34375 -2.765625z" fill-rule="nonzero"></path><path fill="#000000" fill-opacity="0.0" d="m132.99213 218.49869l0 0c-5.5315475 0 -10.015747 -0.3736725 -10.015747 -0.83461l0 -140.31503l0 0c0 -0.22135162 1.0552292 -0.43363953 2.9335403 -0.59015656c1.8783188 -0.15651703 4.425865 -0.24445343 7.0822067 -0.24445343z" fill-rule="evenodd"></path><path fill="#000000" fill-opacity="0.0" d="m132.99213 218.49869l0 0c-5.5315475 0 -10.015747 -0.3736725 -10.015747 -0.83461l0 -140.31503l0 0c0 -0.22135162 1.0552292 -0.43363953 2.9335403 -0.59015656c1.8783188 -0.15651703 4.425865 -0.24445343 7.0822067 -0.24445343" fill-rule="evenodd"></path><path stroke="#000000" stroke-width="1.0" stroke-linejoin="round" stroke-linecap="butt" d="m132.99213 218.49869l0 0c-5.5315475 0 -10.015747 -0.3736725 -10.015747 -0.83461l0 -140.31503l0 0c0 -0.22135162 1.0552292 -0.43363953 2.9335403 -0.59015656c1.8783188 -0.15651703 4.425865 -0.24445343 7.0822067 -0.24445343" fill-rule="evenodd"></path><path fill="#000000" fill-opacity="0.0" d="m519.3365 218.49869l0 0c5.531555 0 10.015747 -0.3736725 10.015747 -0.83461l0 -140.31503l0 0c0 -0.22135162 -1.0551758 -0.43363953 -2.9335327 -0.59015656c-1.8782959 -0.15651703 -4.4258423 -0.24445343 -7.0822144 -0.24445343z" fill-rule="evenodd"></path><path fill="#000000" fill-opacity="0.0" d="m519.3365 218.49869l0 0c5.531555 0 10.015747 -0.3736725 10.015747 -0.83461l0 -140.31503l0 0c0 -0.22135162 -1.0551758 -0.43363953 -2.9335327 -0.59015656c-1.8782959 -0.15651703 -4.4258423 -0.24445343 -7.0822144 -0.24445343" fill-rule="evenodd"></path><path stroke="#000000" stroke-width="1.0" stroke-linejoin="round" stroke-linecap="butt" d="m519.3365 218.49869l0 0c5.531555 0 10.015747 -0.3736725 10.015747 -0.83461l0 -140.31503l0 0c0 -0.22135162 -1.0551758 -0.43363953 -2.9335327 -0.59015656c-1.8782959 -0.15651703 -4.4258423 -0.24445343 -7.0822144 -0.24445343" fill-rule="evenodd"></path><path fill="#000000" fill-opacity="0.0" d="m188.50394 416.01312l0 0c-5.53154 0 -10.015747 -0.37365723 -10.015747 -0.83462524l0 -128.3465l0 0c0 -0.22137451 1.0552216 -0.4336548 2.933548 -0.59017944c1.8783112 -0.15652466 4.4258575 -0.2444458 7.082199 -0.2444458z" fill-rule="evenodd"></path><path fill="#000000" fill-opacity="0.0" d="m188.50394 416.01312l0 0c-5.53154 0 -10.015747 -0.37365723 -10.015747 -0.83462524l0 -128.3465l0 0c0 -0.22137451 1.0552216 -0.4336548 2.933548 -0.59017944c1.8783112 -0.15652466 4.4258575 -0.2444458 7.082199 -0.2444458" fill-rule="evenodd"></path><path stroke="#000000" stroke-width="1.0" stroke-linejoin="round" stroke-linecap="butt" d="m188.50394 416.01312l0 0c-5.53154 0 -10.015747 -0.37365723 -10.015747 -0.83462524l0 -128.3465l0 0c0 -0.22137451 1.0552216 -0.4336548 2.933548 -0.59017944c1.8783112 -0.15652466 4.4258575 -0.2444458 7.082199 -0.2444458" fill-rule="evenodd"></path><path fill="#000000" fill-opacity="0.0" d="m188.50394 568.01575l0 0c-5.53154 0 -10.015747 -0.37365723 -10.015747 -0.8345947l0 -120.34653l0 0c0 -0.22137451 1.0552216 -0.4336548 2.933548 -0.59017944c1.8783112 -0.15652466 4.4258575 -0.2444458 7.082199 -0.2444458z" fill-rule="evenodd"></path><path fill="#000000" fill-opacity="0.0" d="m188.50394 568.01575l0 0c-5.53154 0 -10.015747 -0.37365723 -10.015747 -0.8345947l0 -120.34653l0 0c0 -0.22137451 1.0552216 -0.4336548 2.933548 -0.59017944c1.8783112 -0.15652466 4.4258575 -0.2444458 7.082199 -0.2444458" fill-rule="evenodd"></path><path stroke="#000000" stroke-width="1.0" stroke-linejoin="round" stroke-linecap="butt" d="m188.50394 568.01575l0 0c-5.53154 0 -10.015747 -0.37365723 -10.015747 -0.8345947l0 -120.34653l0 0c0 -0.22137451 1.0552216 -0.4336548 2.933548 -0.59017944c1.8783112 -0.15652466 4.4258575 -0.2444458 7.082199 -0.2444458" fill-rule="evenodd"></path><path fill="#000000" fill-opacity="0.0" d="m332.00058 568.01575l0 0c5.531555 0 10.015747 -0.37365723 10.015747 -0.8345947l0 -120.34653l0 0c0 -0.22137451 -1.0552063 -0.4336548 -2.9335327 -0.59017944c-1.8783264 -0.15652466 -4.425873 -0.2444458 -7.0822144 -0.2444458z" fill-rule="evenodd"></path><path fill="#000000" fill-opacity="0.0" d="m332.00058 568.01575l0 0c5.531555 0 10.015747 -0.37365723 10.015747 -0.8345947l0 -120.34653l0 0c0 -0.22137451 -1.0552063 -0.4336548 -2.9335327 -0.59017944c-1.8783264 -0.15652466 -4.425873 -0.2444458 -7.0822144 -0.2444458" fill-rule="evenodd"></path><path stroke="#000000" stroke-width="1.0" stroke-linejoin="round" stroke-linecap="butt" d="m332.00058 568.01575l0 0c5.531555 0 10.015747 -0.37365723 10.015747 -0.8345947l0 -120.34653l0 0c0 -0.22137451 -1.0552063 -0.4336548 -2.9335327 -0.59017944c-1.8783264 -0.15652466 -4.425873 -0.2444458 -7.0822144 -0.2444458" fill-rule="evenodd"></path><path fill="#000000" fill-opacity="0.0" d="m332.00058 408.01575l0 0c5.531555 0 10.015747 -0.37365723 10.015747 -0.83462524l0 -120.3465l0 0c0 -0.22137451 -1.0552063 -0.4336548 -2.9335327 -0.59017944c-1.8783264 -0.15652466 -4.425873 -0.2444458 -7.0822144 -0.2444458z" fill-rule="evenodd"></path><path fill="#000000" fill-opacity="0.0" d="m332.00058 408.01575l0 0c5.531555 0 10.015747 -0.37365723 10.015747 -0.83462524l0 -120.3465l0 0c0 -0.22137451 -1.0552063 -0.4336548 -2.9335327 -0.59017944c-1.8783264 -0.15652466 -4.425873 -0.2444458 -7.0822144 -0.2444458" fill-rule="evenodd"></path><path stroke="#000000" stroke-width="1.0" stroke-linejoin="round" stroke-linecap="butt" d="m332.00058 408.01575l0 0c5.531555 0 10.015747 -0.37365723 10.015747 -0.83462524l0 -120.3465l0 0c0 -0.22137451 -1.0552063 -0.4336548 -2.9335327 -0.59017944c-1.8783264 -0.15652466 -4.425873 -0.2444458 -7.0822144 -0.2444458" fill-rule="evenodd"></path></g></svg>

